<mxfile host="app.diagrams.net" modified="2024-02-22T13:21:53.146Z" agent="Mozilla/5.0 (Windows NT 10.0; Win64; x64) AppleWebKit/537.36 (KHTML, like Gecko) Chrome/121.0.0.0 Safari/537.36" etag="J7sVNx6irY40biYm9nJP" version="23.1.5" type="google" pages="3">
  <diagram name="component-diagram" id="W5FWcSxgZvEOhLLb1Hfc">
    <mxGraphModel grid="1" page="1" gridSize="10" guides="1" tooltips="1" connect="1" arrows="1" fold="1" pageScale="1" pageWidth="850" pageHeight="1100" math="0" shadow="0">
      <root>
        <mxCell id="0" />
        <mxCell id="1" parent="0" />
        <mxCell id="Z8HLranBa1xiC40OWvlx-22" style="edgeStyle=orthogonalEdgeStyle;rounded=0;orthogonalLoop=1;jettySize=auto;html=1;entryX=0.5;entryY=0;entryDx=0;entryDy=0;strokeWidth=2;fontSize=14;" edge="1" parent="1" source="Z8HLranBa1xiC40OWvlx-5" target="YgCDhnLp7hQ0SzMT8_A7-3">
          <mxGeometry relative="1" as="geometry">
            <Array as="points">
              <mxPoint x="-760" y="764.92" />
              <mxPoint x="-760" y="9.920000000000002" />
              <mxPoint x="-1300" y="9.920000000000002" />
            </Array>
          </mxGeometry>
        </mxCell>
        <mxCell id="Z8HLranBa1xiC40OWvlx-21" style="edgeStyle=orthogonalEdgeStyle;rounded=0;orthogonalLoop=1;jettySize=auto;html=1;entryX=0.5;entryY=0;entryDx=0;entryDy=0;strokeWidth=2;fontSize=14;" edge="1" parent="1" source="YgCDhnLp7hQ0SzMT8_A7-16" target="YgCDhnLp7hQ0SzMT8_A7-3">
          <mxGeometry relative="1" as="geometry">
            <Array as="points">
              <mxPoint x="-760" y="534.92" />
              <mxPoint x="-760" y="9.920000000000002" />
              <mxPoint x="-1300" y="9.920000000000002" />
            </Array>
          </mxGeometry>
        </mxCell>
        <mxCell id="YgCDhnLp7hQ0SzMT8_A7-3" value="" style="rounded=1;whiteSpace=wrap;html=1;" vertex="1" parent="1">
          <mxGeometry x="-1365" y="95.92" width="130" height="130" as="geometry" />
        </mxCell>
        <mxCell id="YgCDhnLp7hQ0SzMT8_A7-1" value="Authentication&lt;br style=&quot;font-size: 9px;&quot;&gt;Service" style="rounded=1;whiteSpace=wrap;html=1;fontSize=9;" vertex="1" parent="1">
          <mxGeometry x="-1355" y="102.92000000000002" width="110" height="30" as="geometry" />
        </mxCell>
        <mxCell id="YgCDhnLp7hQ0SzMT8_A7-2" value="auth_db" style="shape=cylinder3;whiteSpace=wrap;html=1;boundedLbl=1;backgroundOutline=1;size=15;verticalAlign=top;labelPosition=center;verticalLabelPosition=bottom;align=center;" vertex="1" parent="1">
          <mxGeometry x="-1317.5" y="141.92000000000002" width="35" height="50" as="geometry" />
        </mxCell>
        <mxCell id="Z8HLranBa1xiC40OWvlx-20" style="edgeStyle=orthogonalEdgeStyle;rounded=0;orthogonalLoop=1;jettySize=auto;html=1;entryX=0.5;entryY=0;entryDx=0;entryDy=0;strokeWidth=2;fontSize=14;" edge="1" parent="1" source="YgCDhnLp7hQ0SzMT8_A7-8" target="YgCDhnLp7hQ0SzMT8_A7-3">
          <mxGeometry relative="1" as="geometry">
            <Array as="points">
              <mxPoint x="-760" y="94.92" />
              <mxPoint x="-760" y="9.920000000000002" />
              <mxPoint x="-1300" y="9.920000000000002" />
            </Array>
          </mxGeometry>
        </mxCell>
        <mxCell id="YgCDhnLp7hQ0SzMT8_A7-8" value="" style="rounded=1;whiteSpace=wrap;html=1;" vertex="1" parent="1">
          <mxGeometry x="-1030" y="29.92" width="130" height="130" as="geometry" />
        </mxCell>
        <mxCell id="YgCDhnLp7hQ0SzMT8_A7-9" value="Student&lt;br style=&quot;font-size: 9px;&quot;&gt;Service" style="rounded=1;whiteSpace=wrap;html=1;fontSize=9;" vertex="1" parent="1">
          <mxGeometry x="-1020" y="37.92" width="110" height="30" as="geometry" />
        </mxCell>
        <mxCell id="YgCDhnLp7hQ0SzMT8_A7-10" value="student_db" style="shape=cylinder3;whiteSpace=wrap;html=1;boundedLbl=1;backgroundOutline=1;size=15;verticalAlign=top;labelPosition=center;verticalLabelPosition=bottom;align=center;" vertex="1" parent="1">
          <mxGeometry x="-982.5" y="77.92" width="35" height="50" as="geometry" />
        </mxCell>
        <mxCell id="Z8HLranBa1xiC40OWvlx-19" value="tokan verification" style="edgeStyle=orthogonalEdgeStyle;rounded=0;orthogonalLoop=1;jettySize=auto;html=1;entryX=0.5;entryY=0;entryDx=0;entryDy=0;strokeWidth=2;fontSize=14;" edge="1" parent="1" source="YgCDhnLp7hQ0SzMT8_A7-12" target="YgCDhnLp7hQ0SzMT8_A7-3">
          <mxGeometry relative="1" as="geometry">
            <Array as="points">
              <mxPoint x="-760" y="317.92" />
              <mxPoint x="-760" y="9.920000000000002" />
              <mxPoint x="-1300" y="9.920000000000002" />
            </Array>
          </mxGeometry>
        </mxCell>
        <mxCell id="YgCDhnLp7hQ0SzMT8_A7-12" value="" style="rounded=1;whiteSpace=wrap;html=1;" vertex="1" parent="1">
          <mxGeometry x="-1030" y="255.92000000000002" width="130" height="124" as="geometry" />
        </mxCell>
        <mxCell id="YgCDhnLp7hQ0SzMT8_A7-13" value="Cource&lt;br style=&quot;font-size: 9px;&quot;&gt;Service" style="rounded=1;whiteSpace=wrap;html=1;fontSize=9;" vertex="1" parent="1">
          <mxGeometry x="-1020" y="262.92" width="110" height="30" as="geometry" />
        </mxCell>
        <mxCell id="YgCDhnLp7hQ0SzMT8_A7-14" value="cource_db" style="shape=cylinder3;whiteSpace=wrap;html=1;boundedLbl=1;backgroundOutline=1;size=15;verticalAlign=top;labelPosition=center;verticalLabelPosition=bottom;align=center;" vertex="1" parent="1">
          <mxGeometry x="-982.5" y="302.92" width="35" height="50" as="geometry" />
        </mxCell>
        <mxCell id="YgCDhnLp7hQ0SzMT8_A7-16" value="" style="rounded=1;whiteSpace=wrap;html=1;" vertex="1" parent="1">
          <mxGeometry x="-1030" y="469.92" width="130" height="130" as="geometry" />
        </mxCell>
        <mxCell id="YgCDhnLp7hQ0SzMT8_A7-17" value="Library&lt;br style=&quot;font-size: 9px;&quot;&gt;Service" style="rounded=1;whiteSpace=wrap;html=1;fontSize=9;" vertex="1" parent="1">
          <mxGeometry x="-1020" y="475.92" width="110" height="30" as="geometry" />
        </mxCell>
        <mxCell id="YgCDhnLp7hQ0SzMT8_A7-18" value="library_db" style="shape=cylinder3;whiteSpace=wrap;html=1;boundedLbl=1;backgroundOutline=1;size=18.5713849748887;verticalAlign=top;labelPosition=center;verticalLabelPosition=bottom;align=center;" vertex="1" parent="1">
          <mxGeometry x="-982.5" y="515.92" width="35" height="50" as="geometry" />
        </mxCell>
        <mxCell id="Z8HLranBa1xiC40OWvlx-5" value="" style="rounded=1;whiteSpace=wrap;html=1;" vertex="1" parent="1">
          <mxGeometry x="-1030" y="699.92" width="130" height="130" as="geometry" />
        </mxCell>
        <mxCell id="Z8HLranBa1xiC40OWvlx-6" value="Finance&lt;br style=&quot;font-size: 9px;&quot;&gt;Service" style="rounded=1;whiteSpace=wrap;html=1;fontSize=9;" vertex="1" parent="1">
          <mxGeometry x="-1020" y="707.92" width="110" height="30" as="geometry" />
        </mxCell>
        <mxCell id="Z8HLranBa1xiC40OWvlx-7" value="finance_db" style="shape=cylinder3;whiteSpace=wrap;html=1;boundedLbl=1;backgroundOutline=1;size=18.5713849748887;verticalAlign=top;labelPosition=center;verticalLabelPosition=bottom;align=center;" vertex="1" parent="1">
          <mxGeometry x="-982.5" y="747.92" width="35" height="50" as="geometry" />
        </mxCell>
        <mxCell id="Z8HLranBa1xiC40OWvlx-13" style="edgeStyle=orthogonalEdgeStyle;rounded=0;orthogonalLoop=1;jettySize=auto;html=1;fillColor=#d5e8d4;strokeColor=#000000;strokeWidth=2;fontSize=14;" edge="1" parent="1" source="Z8HLranBa1xiC40OWvlx-11" target="YgCDhnLp7hQ0SzMT8_A7-12">
          <mxGeometry relative="1" as="geometry">
            <Array as="points">
              <mxPoint x="-1580" y="317.92" />
            </Array>
          </mxGeometry>
        </mxCell>
        <mxCell id="Z8HLranBa1xiC40OWvlx-14" value="cource details" style="edgeLabel;html=1;align=center;verticalAlign=middle;resizable=0;points=[];fontSize=14;" connectable="0" vertex="1" parent="Z8HLranBa1xiC40OWvlx-13">
          <mxGeometry x="-0.012" y="-1" relative="1" as="geometry">
            <mxPoint x="-1" as="offset" />
          </mxGeometry>
        </mxCell>
        <mxCell id="Z8HLranBa1xiC40OWvlx-15" value="sudent details" style="edgeStyle=orthogonalEdgeStyle;rounded=0;orthogonalLoop=1;jettySize=auto;html=1;strokeWidth=2;fontSize=14;" edge="1" parent="1">
          <mxGeometry relative="1" as="geometry">
            <mxPoint x="-1030" y="99.92000000000002" as="targetPoint" />
            <mxPoint x="-1620.0033333333333" y="416.92" as="sourcePoint" />
            <Array as="points">
              <mxPoint x="-1620" y="260.92" />
              <mxPoint x="-1120" y="260.92" />
              <mxPoint x="-1120" y="99.92000000000002" />
            </Array>
          </mxGeometry>
        </mxCell>
        <mxCell id="Z8HLranBa1xiC40OWvlx-16" style="edgeStyle=orthogonalEdgeStyle;rounded=0;orthogonalLoop=1;jettySize=auto;html=1;strokeWidth=2;fontSize=14;" edge="1" parent="1" source="Z8HLranBa1xiC40OWvlx-11" target="YgCDhnLp7hQ0SzMT8_A7-16">
          <mxGeometry relative="1" as="geometry" />
        </mxCell>
        <mxCell id="Z8HLranBa1xiC40OWvlx-17" value="library access" style="edgeLabel;html=1;align=center;verticalAlign=middle;resizable=0;points=[];fontSize=14;" connectable="0" vertex="1" parent="Z8HLranBa1xiC40OWvlx-16">
          <mxGeometry x="-0.238" y="1" relative="1" as="geometry">
            <mxPoint x="1" as="offset" />
          </mxGeometry>
        </mxCell>
        <mxCell id="Z8HLranBa1xiC40OWvlx-18" value="finance access" style="edgeStyle=orthogonalEdgeStyle;rounded=0;orthogonalLoop=1;jettySize=auto;html=1;entryX=0;entryY=0.5;entryDx=0;entryDy=0;strokeWidth=2;fontSize=14;" edge="1" parent="1" source="Z8HLranBa1xiC40OWvlx-11" target="Z8HLranBa1xiC40OWvlx-5">
          <mxGeometry relative="1" as="geometry">
            <Array as="points">
              <mxPoint x="-1610" y="764.92" />
            </Array>
          </mxGeometry>
        </mxCell>
        <mxCell id="Z8HLranBa1xiC40OWvlx-11" value="" style="rounded=1;whiteSpace=wrap;html=1;" vertex="1" parent="1">
          <mxGeometry x="-1690" y="415.92" width="140" height="150" as="geometry" />
        </mxCell>
        <mxCell id="Z8HLranBa1xiC40OWvlx-9" value="Portal UI" style="rounded=1;whiteSpace=wrap;html=1;" vertex="1" parent="1">
          <mxGeometry x="-1680" y="498.91999999999996" width="120" height="60" as="geometry" />
        </mxCell>
        <mxCell id="Z8HLranBa1xiC40OWvlx-10" value="Portal backend" style="rounded=1;whiteSpace=wrap;html=1;" vertex="1" parent="1">
          <mxGeometry x="-1680" y="425.92" width="120" height="60" as="geometry" />
        </mxCell>
        <mxCell id="Z8HLranBa1xiC40OWvlx-12" value="authentication" style="endArrow=classic;html=1;rounded=0;exitX=0.5;exitY=0;exitDx=0;exitDy=0;entryX=0;entryY=0.5;entryDx=0;entryDy=0;strokeWidth=2;fontSize=14;" edge="1" parent="1" target="YgCDhnLp7hQ0SzMT8_A7-3">
          <mxGeometry width="50" height="50" relative="1" as="geometry">
            <mxPoint x="-1660" y="414.92" as="sourcePoint" />
            <mxPoint x="-1405" y="159.92000000000002" as="targetPoint" />
            <Array as="points">
              <mxPoint x="-1660" y="159.92000000000002" />
            </Array>
          </mxGeometry>
        </mxCell>
      </root>
    </mxGraphModel>
  </diagram>
  <diagram id="MXMLb_p8kmucyPzzMKGp" name="user_jurney">
    <mxGraphModel grid="1" page="1" gridSize="10" guides="1" tooltips="1" connect="1" arrows="1" fold="1" pageScale="1" pageWidth="850" pageHeight="1100" math="0" shadow="0">
      <root>
        <mxCell id="0" />
        <mxCell id="1" parent="0" />
        <mxCell id="JvSo1OnFISmNt0ZYnIga-1" value="" style="rounded=0;whiteSpace=wrap;html=1;" vertex="1" parent="1">
          <mxGeometry x="40" y="240" width="440" height="230" as="geometry" />
        </mxCell>
        <mxCell id="JvSo1OnFISmNt0ZYnIga-2" value="" style="rounded=1;whiteSpace=wrap;html=1;" vertex="1" parent="1">
          <mxGeometry x="130" y="250" width="240" height="210" as="geometry" />
        </mxCell>
        <mxCell id="JvSo1OnFISmNt0ZYnIga-3" value="Username" style="text;html=1;strokeColor=none;fillColor=none;align=center;verticalAlign=middle;whiteSpace=wrap;rounded=0;" vertex="1" parent="1">
          <mxGeometry x="150" y="251" width="60" height="30" as="geometry" />
        </mxCell>
        <mxCell id="JvSo1OnFISmNt0ZYnIga-4" value="Password" style="text;html=1;strokeColor=none;fillColor=none;align=center;verticalAlign=middle;whiteSpace=wrap;rounded=0;" vertex="1" parent="1">
          <mxGeometry x="150" y="308" width="60" height="30" as="geometry" />
        </mxCell>
        <mxCell id="JvSo1OnFISmNt0ZYnIga-5" value="" style="rounded=1;whiteSpace=wrap;html=1;" vertex="1" parent="1">
          <mxGeometry x="150" y="281" width="200" height="30" as="geometry" />
        </mxCell>
        <mxCell id="JvSo1OnFISmNt0ZYnIga-6" value="" style="rounded=1;whiteSpace=wrap;html=1;" vertex="1" parent="1">
          <mxGeometry x="150" y="338" width="200" height="30" as="geometry" />
        </mxCell>
        <mxCell id="JvSo1OnFISmNt0ZYnIga-7" value="Forgot password ?" style="text;html=1;strokeColor=none;fillColor=none;align=center;verticalAlign=middle;whiteSpace=wrap;rounded=0;" vertex="1" parent="1">
          <mxGeometry x="150" y="415" width="110" height="30" as="geometry" />
        </mxCell>
        <mxCell id="JvSo1OnFISmNt0ZYnIga-8" value="SignUp" style="rounded=1;whiteSpace=wrap;html=1;" vertex="1" parent="1">
          <mxGeometry x="255" y="380" width="70" height="30" as="geometry" />
        </mxCell>
        <mxCell id="JvSo1OnFISmNt0ZYnIga-11" style="edgeStyle=orthogonalEdgeStyle;rounded=0;orthogonalLoop=1;jettySize=auto;html=1;entryX=0;entryY=0.5;entryDx=0;entryDy=0;" edge="1" parent="1" source="JvSo1OnFISmNt0ZYnIga-9" target="JvSo1OnFISmNt0ZYnIga-10">
          <mxGeometry relative="1" as="geometry">
            <Array as="points">
              <mxPoint x="30" y="395" />
              <mxPoint x="30" y="635" />
            </Array>
          </mxGeometry>
        </mxCell>
        <mxCell id="JvSo1OnFISmNt0ZYnIga-12" value="first time signin" style="edgeLabel;html=1;align=center;verticalAlign=middle;resizable=0;points=[];" connectable="0" vertex="1" parent="JvSo1OnFISmNt0ZYnIga-11">
          <mxGeometry x="0.1852" y="-4" relative="1" as="geometry">
            <mxPoint x="-1" as="offset" />
          </mxGeometry>
        </mxCell>
        <mxCell id="JvSo1OnFISmNt0ZYnIga-9" value="SignIn" style="rounded=1;whiteSpace=wrap;html=1;" vertex="1" parent="1">
          <mxGeometry x="175" y="380" width="70" height="30" as="geometry" />
        </mxCell>
        <mxCell id="JvSo1OnFISmNt0ZYnIga-19" value="" style="group" connectable="0" vertex="1" parent="1">
          <mxGeometry x="600" y="520" width="440" height="230" as="geometry" />
        </mxCell>
        <mxCell id="JvSo1OnFISmNt0ZYnIga-10" value="" style="rounded=0;whiteSpace=wrap;html=1;container=0;" vertex="1" parent="JvSo1OnFISmNt0ZYnIga-19">
          <mxGeometry width="440" height="230" as="geometry" />
        </mxCell>
        <mxCell id="JvSo1OnFISmNt0ZYnIga-13" value="" style="rounded=0;whiteSpace=wrap;html=1;container=0;" vertex="1" parent="JvSo1OnFISmNt0ZYnIga-19">
          <mxGeometry width="440" height="40" as="geometry" />
        </mxCell>
        <mxCell id="JvSo1OnFISmNt0ZYnIga-14" value="" style="rounded=0;whiteSpace=wrap;html=1;container=0;" vertex="1" parent="JvSo1OnFISmNt0ZYnIga-19">
          <mxGeometry y="40" width="90" height="190" as="geometry" />
        </mxCell>
        <mxCell id="JvSo1OnFISmNt0ZYnIga-15" value="" style="ellipse;whiteSpace=wrap;html=1;aspect=fixed;container=0;" vertex="1" parent="JvSo1OnFISmNt0ZYnIga-19">
          <mxGeometry x="403" y="5" width="30" height="30" as="geometry" />
        </mxCell>
        <mxCell id="JvSo1OnFISmNt0ZYnIga-16" value="User Name" style="text;html=1;strokeColor=none;fillColor=none;align=center;verticalAlign=middle;whiteSpace=wrap;rounded=0;container=0;" vertex="1" parent="JvSo1OnFISmNt0ZYnIga-19">
          <mxGeometry x="330" y="6" width="73" height="30" as="geometry" />
        </mxCell>
        <mxCell id="JvSo1OnFISmNt0ZYnIga-18" value="Student Management System" style="text;html=1;strokeColor=none;fillColor=none;align=center;verticalAlign=middle;whiteSpace=wrap;rounded=0;container=0;" vertex="1" parent="JvSo1OnFISmNt0ZYnIga-19">
          <mxGeometry y="6" width="180" height="30" as="geometry" />
        </mxCell>
        <mxCell id="JvSo1OnFISmNt0ZYnIga-22" value="Welcome Screen" style="text;html=1;strokeColor=none;fillColor=none;align=center;verticalAlign=middle;whiteSpace=wrap;rounded=0;" vertex="1" parent="JvSo1OnFISmNt0ZYnIga-19">
          <mxGeometry x="210" y="100" width="60" height="30" as="geometry" />
        </mxCell>
        <mxCell id="JvSo1OnFISmNt0ZYnIga-41" style="edgeStyle=orthogonalEdgeStyle;rounded=0;orthogonalLoop=1;jettySize=auto;html=1;entryX=0;entryY=0.5;entryDx=0;entryDy=0;" edge="1" parent="1" source="JvSo1OnFISmNt0ZYnIga-21" target="JvSo1OnFISmNt0ZYnIga-40">
          <mxGeometry relative="1" as="geometry">
            <Array as="points">
              <mxPoint x="490" y="575" />
              <mxPoint x="490" y="915" />
            </Array>
          </mxGeometry>
        </mxCell>
        <mxCell id="JvSo1OnFISmNt0ZYnIga-42" value="selecting a cource" style="edgeLabel;html=1;align=center;verticalAlign=middle;resizable=0;points=[];" connectable="0" vertex="1" parent="JvSo1OnFISmNt0ZYnIga-41">
          <mxGeometry x="0.3114" y="-3" relative="1" as="geometry">
            <mxPoint y="1" as="offset" />
          </mxGeometry>
        </mxCell>
        <mxCell id="JvSo1OnFISmNt0ZYnIga-21" value="Cources" style="rounded=0;whiteSpace=wrap;html=1;" vertex="1" parent="1">
          <mxGeometry x="600" y="560" width="90" height="30" as="geometry" />
        </mxCell>
        <mxCell id="JvSo1OnFISmNt0ZYnIga-24" value="" style="group" connectable="0" vertex="1" parent="1">
          <mxGeometry x="590" y="860" width="440" height="230" as="geometry" />
        </mxCell>
        <mxCell id="JvSo1OnFISmNt0ZYnIga-25" value="" style="rounded=0;whiteSpace=wrap;html=1;container=0;" vertex="1" parent="JvSo1OnFISmNt0ZYnIga-24">
          <mxGeometry width="440" height="230" as="geometry" />
        </mxCell>
        <mxCell id="JvSo1OnFISmNt0ZYnIga-26" value="" style="rounded=0;whiteSpace=wrap;html=1;container=0;" vertex="1" parent="JvSo1OnFISmNt0ZYnIga-24">
          <mxGeometry width="440" height="40" as="geometry" />
        </mxCell>
        <mxCell id="JvSo1OnFISmNt0ZYnIga-27" value="" style="rounded=0;whiteSpace=wrap;html=1;container=0;" vertex="1" parent="JvSo1OnFISmNt0ZYnIga-24">
          <mxGeometry y="40" width="90" height="190" as="geometry" />
        </mxCell>
        <mxCell id="JvSo1OnFISmNt0ZYnIga-28" value="" style="ellipse;whiteSpace=wrap;html=1;aspect=fixed;container=0;" vertex="1" parent="JvSo1OnFISmNt0ZYnIga-24">
          <mxGeometry x="403" y="5" width="30" height="30" as="geometry" />
        </mxCell>
        <mxCell id="JvSo1OnFISmNt0ZYnIga-29" value="User Name" style="text;html=1;strokeColor=none;fillColor=none;align=center;verticalAlign=middle;whiteSpace=wrap;rounded=0;container=0;" vertex="1" parent="JvSo1OnFISmNt0ZYnIga-24">
          <mxGeometry x="330" y="6" width="73" height="30" as="geometry" />
        </mxCell>
        <mxCell id="JvSo1OnFISmNt0ZYnIga-30" value="Student Management System" style="text;html=1;strokeColor=none;fillColor=none;align=center;verticalAlign=middle;whiteSpace=wrap;rounded=0;container=0;" vertex="1" parent="JvSo1OnFISmNt0ZYnIga-24">
          <mxGeometry y="6" width="180" height="30" as="geometry" />
        </mxCell>
        <mxCell id="JvSo1OnFISmNt0ZYnIga-40" value="Cources" style="rounded=0;whiteSpace=wrap;html=1;fillColor=#f5f5f5;strokeColor=#666666;fontColor=#333333;" vertex="1" parent="JvSo1OnFISmNt0ZYnIga-24">
          <mxGeometry y="40" width="90" height="30" as="geometry" />
        </mxCell>
        <mxCell id="JvSo1OnFISmNt0ZYnIga-43" value="search by name or cource code" style="rounded=1;whiteSpace=wrap;html=1;labelPosition=center;verticalLabelPosition=middle;align=center;verticalAlign=middle;" vertex="1" parent="JvSo1OnFISmNt0ZYnIga-24">
          <mxGeometry x="99" y="76" width="320" height="30" as="geometry" />
        </mxCell>
        <mxCell id="JvSo1OnFISmNt0ZYnIga-44" value="L001: Sinhala" style="text;html=1;strokeColor=none;fillColor=none;align=center;verticalAlign=middle;whiteSpace=wrap;rounded=0;" vertex="1" parent="JvSo1OnFISmNt0ZYnIga-24">
          <mxGeometry x="99" y="116" width="80" height="30" as="geometry" />
        </mxCell>
        <mxCell id="JvSo1OnFISmNt0ZYnIga-47" value="" style="rounded=0;whiteSpace=wrap;html=1;" vertex="1" parent="JvSo1OnFISmNt0ZYnIga-24">
          <mxGeometry x="180" y="121" width="20" height="20" as="geometry" />
        </mxCell>
        <mxCell id="JvSo1OnFISmNt0ZYnIga-54" value="" style="verticalLabelPosition=bottom;verticalAlign=top;html=1;shape=mxgraph.basic.tick" vertex="1" parent="JvSo1OnFISmNt0ZYnIga-24">
          <mxGeometry x="183.63" y="123.5" width="12.75" height="15" as="geometry" />
        </mxCell>
        <mxCell id="JvSo1OnFISmNt0ZYnIga-58" value="Enroll" style="rounded=1;whiteSpace=wrap;html=1;" vertex="1" parent="JvSo1OnFISmNt0ZYnIga-24">
          <mxGeometry x="360" y="200" width="73" height="22" as="geometry" />
        </mxCell>
        <mxCell id="JvSo1OnFISmNt0ZYnIga-59" value="Search and Enroll Cources" style="text;html=1;strokeColor=none;fillColor=none;align=center;verticalAlign=middle;whiteSpace=wrap;rounded=0;" vertex="1" parent="JvSo1OnFISmNt0ZYnIga-24">
          <mxGeometry x="99" y="40" width="151" height="30" as="geometry" />
        </mxCell>
        <mxCell id="JvSo1OnFISmNt0ZYnIga-48" value="L001: Sinhala" style="text;html=1;strokeColor=none;fillColor=none;align=center;verticalAlign=middle;whiteSpace=wrap;rounded=0;" vertex="1" parent="1">
          <mxGeometry x="689" y="1004" width="80" height="30" as="geometry" />
        </mxCell>
        <mxCell id="JvSo1OnFISmNt0ZYnIga-49" value="" style="rounded=0;whiteSpace=wrap;html=1;" vertex="1" parent="1">
          <mxGeometry x="770" y="1009" width="20" height="20" as="geometry" />
        </mxCell>
        <mxCell id="JvSo1OnFISmNt0ZYnIga-50" value="L001: Sinhala" style="text;html=1;strokeColor=none;fillColor=none;align=center;verticalAlign=middle;whiteSpace=wrap;rounded=0;" vertex="1" parent="1">
          <mxGeometry x="689" y="1032" width="80" height="30" as="geometry" />
        </mxCell>
        <mxCell id="JvSo1OnFISmNt0ZYnIga-52" value="L001: Sinhala" style="text;html=1;strokeColor=none;fillColor=none;align=center;verticalAlign=middle;whiteSpace=wrap;rounded=0;" vertex="1" parent="1">
          <mxGeometry x="689" y="1060" width="80" height="30" as="geometry" />
        </mxCell>
        <mxCell id="JvSo1OnFISmNt0ZYnIga-53" value="" style="rounded=0;whiteSpace=wrap;html=1;" vertex="1" parent="1">
          <mxGeometry x="770" y="1065" width="20" height="20" as="geometry" />
        </mxCell>
        <mxCell id="JvSo1OnFISmNt0ZYnIga-51" value="" style="rounded=0;whiteSpace=wrap;html=1;" vertex="1" parent="1">
          <mxGeometry x="770" y="1037" width="20" height="20" as="geometry" />
        </mxCell>
        <mxCell id="JvSo1OnFISmNt0ZYnIga-56" value="" style="verticalLabelPosition=bottom;verticalAlign=top;html=1;shape=mxgraph.basic.tick" vertex="1" parent="1">
          <mxGeometry x="774.63" y="1039.5" width="12.75" height="15" as="geometry" />
        </mxCell>
        <mxCell id="JvSo1OnFISmNt0ZYnIga-60" value="" style="group" connectable="0" vertex="1" parent="1">
          <mxGeometry x="1700" y="1020" width="440" height="230" as="geometry" />
        </mxCell>
        <mxCell id="JvSo1OnFISmNt0ZYnIga-61" value="" style="rounded=0;whiteSpace=wrap;html=1;container=0;" vertex="1" parent="JvSo1OnFISmNt0ZYnIga-60">
          <mxGeometry width="440" height="230" as="geometry" />
        </mxCell>
        <mxCell id="JvSo1OnFISmNt0ZYnIga-62" value="" style="rounded=0;whiteSpace=wrap;html=1;container=0;" vertex="1" parent="JvSo1OnFISmNt0ZYnIga-60">
          <mxGeometry width="440" height="40" as="geometry" />
        </mxCell>
        <mxCell id="JvSo1OnFISmNt0ZYnIga-63" value="" style="rounded=0;whiteSpace=wrap;html=1;container=0;" vertex="1" parent="JvSo1OnFISmNt0ZYnIga-60">
          <mxGeometry y="40" width="90" height="190" as="geometry" />
        </mxCell>
        <mxCell id="JvSo1OnFISmNt0ZYnIga-64" value="" style="ellipse;whiteSpace=wrap;html=1;aspect=fixed;container=0;" vertex="1" parent="JvSo1OnFISmNt0ZYnIga-60">
          <mxGeometry x="403" y="5" width="30" height="30" as="geometry" />
        </mxCell>
        <mxCell id="JvSo1OnFISmNt0ZYnIga-65" value="User Name" style="text;html=1;strokeColor=none;fillColor=none;align=center;verticalAlign=middle;whiteSpace=wrap;rounded=0;container=0;" vertex="1" parent="JvSo1OnFISmNt0ZYnIga-60">
          <mxGeometry x="330" y="6" width="73" height="30" as="geometry" />
        </mxCell>
        <mxCell id="JvSo1OnFISmNt0ZYnIga-66" value="Student Management System" style="text;html=1;strokeColor=none;fillColor=none;align=center;verticalAlign=middle;whiteSpace=wrap;rounded=0;container=0;" vertex="1" parent="JvSo1OnFISmNt0ZYnIga-60">
          <mxGeometry y="6" width="180" height="30" as="geometry" />
        </mxCell>
        <mxCell id="JvSo1OnFISmNt0ZYnIga-67" value="" style="rounded=1;whiteSpace=wrap;html=1;" vertex="1" parent="JvSo1OnFISmNt0ZYnIga-60">
          <mxGeometry x="75" y="10" width="325" height="210" as="geometry" />
        </mxCell>
        <mxCell id="JvSo1OnFISmNt0ZYnIga-69" value="" style="shape=image;html=1;verticalAlign=top;verticalLabelPosition=bottom;labelBackgroundColor=#ffffff;imageAspect=0;aspect=fixed;image=https://cdn2.iconfinder.com/data/icons/boxicons-regular-vol-2/24/bx-loader-alt-128.png" vertex="1" parent="JvSo1OnFISmNt0ZYnIga-60">
          <mxGeometry x="190" y="30" width="81" height="81" as="geometry" />
        </mxCell>
        <mxCell id="JvSo1OnFISmNt0ZYnIga-71" style="edgeStyle=orthogonalEdgeStyle;rounded=0;orthogonalLoop=1;jettySize=auto;html=1;" edge="1" parent="JvSo1OnFISmNt0ZYnIga-60" source="JvSo1OnFISmNt0ZYnIga-70">
          <mxGeometry relative="1" as="geometry">
            <mxPoint x="-80" y="270" as="targetPoint" />
          </mxGeometry>
        </mxCell>
        <mxCell id="JvSo1OnFISmNt0ZYnIga-70" value="Status message" style="text;html=1;strokeColor=none;fillColor=none;align=center;verticalAlign=middle;whiteSpace=wrap;rounded=0;" vertex="1" parent="JvSo1OnFISmNt0ZYnIga-60">
          <mxGeometry x="127.5" y="130" width="220" height="30" as="geometry" />
        </mxCell>
        <mxCell id="JvSo1OnFISmNt0ZYnIga-68" value="enroll for subjects" style="edgeStyle=orthogonalEdgeStyle;rounded=0;orthogonalLoop=1;jettySize=auto;html=1;entryX=0;entryY=0.5;entryDx=0;entryDy=0;" edge="1" parent="1" target="JvSo1OnFISmNt0ZYnIga-139">
          <mxGeometry relative="1" as="geometry">
            <mxPoint x="970" y="1082" as="sourcePoint" />
            <mxPoint x="1080" y="1280" as="targetPoint" />
            <Array as="points">
              <mxPoint x="970" y="1240" />
            </Array>
          </mxGeometry>
        </mxCell>
        <mxCell id="JvSo1OnFISmNt0ZYnIga-72" value="&lt;h1&gt;Status Message&lt;/h1&gt;&lt;p&gt;01. If user is not having student account should show&amp;nbsp;&lt;br&gt;&lt;br&gt;&quot;Student Account Creating and enrolling to subjects&quot;&lt;/p&gt;&lt;p&gt;02. If the user already have an student account show&lt;br&gt;&lt;br&gt;&quot;Subjects are enrolling&quot;&lt;/p&gt;" style="text;html=1;strokeColor=none;fillColor=none;spacing=5;spacingTop=-20;whiteSpace=wrap;overflow=hidden;rounded=0;" vertex="1" parent="1">
          <mxGeometry x="1610" y="1290" width="190" height="200" as="geometry" />
        </mxCell>
        <mxCell id="JvSo1OnFISmNt0ZYnIga-73" value="" style="group" connectable="0" vertex="1" parent="1">
          <mxGeometry x="2180" y="1250" width="440" height="230" as="geometry" />
        </mxCell>
        <mxCell id="JvSo1OnFISmNt0ZYnIga-74" value="" style="rounded=0;whiteSpace=wrap;html=1;container=0;" vertex="1" parent="JvSo1OnFISmNt0ZYnIga-73">
          <mxGeometry width="440" height="230" as="geometry" />
        </mxCell>
        <mxCell id="JvSo1OnFISmNt0ZYnIga-75" value="" style="rounded=0;whiteSpace=wrap;html=1;container=0;" vertex="1" parent="JvSo1OnFISmNt0ZYnIga-73">
          <mxGeometry width="440" height="40" as="geometry" />
        </mxCell>
        <mxCell id="JvSo1OnFISmNt0ZYnIga-76" value="" style="rounded=0;whiteSpace=wrap;html=1;container=0;" vertex="1" parent="JvSo1OnFISmNt0ZYnIga-73">
          <mxGeometry y="40" width="90" height="190" as="geometry" />
        </mxCell>
        <mxCell id="JvSo1OnFISmNt0ZYnIga-77" value="" style="ellipse;whiteSpace=wrap;html=1;aspect=fixed;container=0;" vertex="1" parent="JvSo1OnFISmNt0ZYnIga-73">
          <mxGeometry x="403" y="5" width="30" height="30" as="geometry" />
        </mxCell>
        <mxCell id="JvSo1OnFISmNt0ZYnIga-78" value="User Name" style="text;html=1;strokeColor=none;fillColor=none;align=center;verticalAlign=middle;whiteSpace=wrap;rounded=0;container=0;" vertex="1" parent="JvSo1OnFISmNt0ZYnIga-73">
          <mxGeometry x="330" y="6" width="73" height="30" as="geometry" />
        </mxCell>
        <mxCell id="JvSo1OnFISmNt0ZYnIga-79" value="Student Management System" style="text;html=1;strokeColor=none;fillColor=none;align=center;verticalAlign=middle;whiteSpace=wrap;rounded=0;container=0;" vertex="1" parent="JvSo1OnFISmNt0ZYnIga-73">
          <mxGeometry y="6" width="180" height="30" as="geometry" />
        </mxCell>
        <mxCell id="JvSo1OnFISmNt0ZYnIga-80" value="" style="rounded=1;whiteSpace=wrap;html=1;" vertex="1" parent="JvSo1OnFISmNt0ZYnIga-73">
          <mxGeometry x="75" y="10" width="325" height="210" as="geometry" />
        </mxCell>
        <mxCell id="JvSo1OnFISmNt0ZYnIga-84" value="" style="shape=image;html=1;verticalAlign=top;verticalLabelPosition=bottom;labelBackgroundColor=#ffffff;imageAspect=0;aspect=fixed;image=https://cdn4.iconfinder.com/data/icons/web-ui-color/128/Checkmark-128.png" vertex="1" parent="JvSo1OnFISmNt0ZYnIga-73">
          <mxGeometry x="192.5" y="30" width="90" height="90" as="geometry" />
        </mxCell>
        <mxCell id="JvSo1OnFISmNt0ZYnIga-85" value="Success fully Enrolled" style="text;html=1;strokeColor=none;fillColor=none;align=center;verticalAlign=middle;whiteSpace=wrap;rounded=0;" vertex="1" parent="JvSo1OnFISmNt0ZYnIga-73">
          <mxGeometry x="127.5" y="130" width="220" height="30" as="geometry" />
        </mxCell>
        <mxCell id="JvSo1OnFISmNt0ZYnIga-86" value="OK" style="rounded=1;whiteSpace=wrap;html=1;" vertex="1" parent="JvSo1OnFISmNt0ZYnIga-73">
          <mxGeometry x="200" y="170" width="90" height="30" as="geometry" />
        </mxCell>
        <mxCell id="JvSo1OnFISmNt0ZYnIga-87" style="edgeStyle=orthogonalEdgeStyle;rounded=0;orthogonalLoop=1;jettySize=auto;html=1;entryX=0;entryY=0.5;entryDx=0;entryDy=0;exitX=1;exitY=0.5;exitDx=0;exitDy=0;" edge="1" parent="1" source="JvSo1OnFISmNt0ZYnIga-67" target="JvSo1OnFISmNt0ZYnIga-80">
          <mxGeometry relative="1" as="geometry">
            <Array as="points">
              <mxPoint x="2120" y="1135" />
              <mxPoint x="2120" y="1365" />
            </Array>
          </mxGeometry>
        </mxCell>
        <mxCell id="JvSo1OnFISmNt0ZYnIga-88" value="after success" style="edgeLabel;html=1;align=center;verticalAlign=middle;resizable=0;points=[];" connectable="0" vertex="1" parent="JvSo1OnFISmNt0ZYnIga-87">
          <mxGeometry x="-0.1516" y="-2" relative="1" as="geometry">
            <mxPoint as="offset" />
          </mxGeometry>
        </mxCell>
        <mxCell id="JvSo1OnFISmNt0ZYnIga-89" value="" style="group" connectable="0" vertex="1" parent="1">
          <mxGeometry x="2180" y="1530" width="440" height="230" as="geometry" />
        </mxCell>
        <mxCell id="JvSo1OnFISmNt0ZYnIga-90" value="" style="rounded=0;whiteSpace=wrap;html=1;container=0;" vertex="1" parent="JvSo1OnFISmNt0ZYnIga-89">
          <mxGeometry width="440" height="230" as="geometry" />
        </mxCell>
        <mxCell id="JvSo1OnFISmNt0ZYnIga-91" value="" style="rounded=0;whiteSpace=wrap;html=1;container=0;" vertex="1" parent="JvSo1OnFISmNt0ZYnIga-89">
          <mxGeometry width="440" height="40" as="geometry" />
        </mxCell>
        <mxCell id="JvSo1OnFISmNt0ZYnIga-92" value="" style="rounded=0;whiteSpace=wrap;html=1;container=0;" vertex="1" parent="JvSo1OnFISmNt0ZYnIga-89">
          <mxGeometry y="40" width="90" height="190" as="geometry" />
        </mxCell>
        <mxCell id="JvSo1OnFISmNt0ZYnIga-93" value="" style="ellipse;whiteSpace=wrap;html=1;aspect=fixed;container=0;" vertex="1" parent="JvSo1OnFISmNt0ZYnIga-89">
          <mxGeometry x="403" y="5" width="30" height="30" as="geometry" />
        </mxCell>
        <mxCell id="JvSo1OnFISmNt0ZYnIga-94" value="User Name" style="text;html=1;strokeColor=none;fillColor=none;align=center;verticalAlign=middle;whiteSpace=wrap;rounded=0;container=0;" vertex="1" parent="JvSo1OnFISmNt0ZYnIga-89">
          <mxGeometry x="330" y="6" width="73" height="30" as="geometry" />
        </mxCell>
        <mxCell id="JvSo1OnFISmNt0ZYnIga-95" value="Student Management System" style="text;html=1;strokeColor=none;fillColor=none;align=center;verticalAlign=middle;whiteSpace=wrap;rounded=0;container=0;" vertex="1" parent="JvSo1OnFISmNt0ZYnIga-89">
          <mxGeometry y="6" width="180" height="30" as="geometry" />
        </mxCell>
        <mxCell id="JvSo1OnFISmNt0ZYnIga-96" value="" style="rounded=1;whiteSpace=wrap;html=1;" vertex="1" parent="JvSo1OnFISmNt0ZYnIga-89">
          <mxGeometry x="75" y="10" width="325" height="210" as="geometry" />
        </mxCell>
        <mxCell id="JvSo1OnFISmNt0ZYnIga-98" value="Failed enrolling for the cources please try again later" style="text;html=1;strokeColor=none;fillColor=none;align=center;verticalAlign=middle;whiteSpace=wrap;rounded=0;" vertex="1" parent="JvSo1OnFISmNt0ZYnIga-89">
          <mxGeometry x="127.5" y="130" width="220" height="30" as="geometry" />
        </mxCell>
        <mxCell id="JvSo1OnFISmNt0ZYnIga-99" value="OK" style="rounded=1;whiteSpace=wrap;html=1;" vertex="1" parent="JvSo1OnFISmNt0ZYnIga-89">
          <mxGeometry x="200" y="170" width="90" height="30" as="geometry" />
        </mxCell>
        <mxCell id="JvSo1OnFISmNt0ZYnIga-102" value="" style="shape=image;html=1;verticalAlign=top;verticalLabelPosition=bottom;labelBackgroundColor=#ffffff;imageAspect=0;aspect=fixed;image=https://cdn2.iconfinder.com/data/icons/simple-microphone-icon/512/Cancel_Icon-128.png" vertex="1" parent="JvSo1OnFISmNt0ZYnIga-89">
          <mxGeometry x="173.5" y="10" width="128" height="128" as="geometry" />
        </mxCell>
        <mxCell id="JvSo1OnFISmNt0ZYnIga-100" style="edgeStyle=orthogonalEdgeStyle;rounded=0;orthogonalLoop=1;jettySize=auto;html=1;entryX=0;entryY=0.5;entryDx=0;entryDy=0;exitX=0.5;exitY=1;exitDx=0;exitDy=0;" edge="1" parent="1" source="JvSo1OnFISmNt0ZYnIga-67" target="JvSo1OnFISmNt0ZYnIga-96">
          <mxGeometry relative="1" as="geometry">
            <mxPoint x="2110" y="1145" as="sourcePoint" />
            <mxPoint x="2265" y="1375" as="targetPoint" />
            <Array as="points">
              <mxPoint x="1937" y="1640" />
              <mxPoint x="2255" y="1640" />
            </Array>
          </mxGeometry>
        </mxCell>
        <mxCell id="JvSo1OnFISmNt0ZYnIga-101" value="after fail" style="edgeLabel;html=1;align=center;verticalAlign=middle;resizable=0;points=[];" connectable="0" vertex="1" parent="JvSo1OnFISmNt0ZYnIga-100">
          <mxGeometry x="-0.1516" y="-2" relative="1" as="geometry">
            <mxPoint as="offset" />
          </mxGeometry>
        </mxCell>
        <mxCell id="JvSo1OnFISmNt0ZYnIga-103" value="" style="group" connectable="0" vertex="1" parent="1">
          <mxGeometry x="2740" y="1010" width="440" height="230" as="geometry" />
        </mxCell>
        <mxCell id="JvSo1OnFISmNt0ZYnIga-104" value="" style="rounded=0;whiteSpace=wrap;html=1;container=0;" vertex="1" parent="JvSo1OnFISmNt0ZYnIga-103">
          <mxGeometry width="440" height="230" as="geometry" />
        </mxCell>
        <mxCell id="JvSo1OnFISmNt0ZYnIga-105" value="" style="rounded=0;whiteSpace=wrap;html=1;container=0;" vertex="1" parent="JvSo1OnFISmNt0ZYnIga-103">
          <mxGeometry width="440" height="40" as="geometry" />
        </mxCell>
        <mxCell id="JvSo1OnFISmNt0ZYnIga-106" value="" style="rounded=0;whiteSpace=wrap;html=1;container=0;" vertex="1" parent="JvSo1OnFISmNt0ZYnIga-103">
          <mxGeometry y="40" width="90" height="190" as="geometry" />
        </mxCell>
        <mxCell id="JvSo1OnFISmNt0ZYnIga-107" value="" style="ellipse;whiteSpace=wrap;html=1;aspect=fixed;container=0;" vertex="1" parent="JvSo1OnFISmNt0ZYnIga-103">
          <mxGeometry x="403" y="5" width="30" height="30" as="geometry" />
        </mxCell>
        <mxCell id="JvSo1OnFISmNt0ZYnIga-108" value="User Name" style="text;html=1;strokeColor=none;fillColor=none;align=center;verticalAlign=middle;whiteSpace=wrap;rounded=0;container=0;" vertex="1" parent="JvSo1OnFISmNt0ZYnIga-103">
          <mxGeometry x="330" y="6" width="73" height="30" as="geometry" />
        </mxCell>
        <mxCell id="JvSo1OnFISmNt0ZYnIga-109" value="Student Management System" style="text;html=1;strokeColor=none;fillColor=none;align=center;verticalAlign=middle;whiteSpace=wrap;rounded=0;container=0;" vertex="1" parent="JvSo1OnFISmNt0ZYnIga-103">
          <mxGeometry y="6" width="180" height="30" as="geometry" />
        </mxCell>
        <mxCell id="JvSo1OnFISmNt0ZYnIga-153" style="edgeStyle=orthogonalEdgeStyle;rounded=0;orthogonalLoop=1;jettySize=auto;html=1;" edge="1" parent="JvSo1OnFISmNt0ZYnIga-103" source="JvSo1OnFISmNt0ZYnIga-150">
          <mxGeometry relative="1" as="geometry">
            <mxPoint x="-70" y="55" as="targetPoint" />
          </mxGeometry>
        </mxCell>
        <mxCell id="JvSo1OnFISmNt0ZYnIga-150" value="Cources" style="rounded=0;whiteSpace=wrap;html=1;" vertex="1" parent="JvSo1OnFISmNt0ZYnIga-103">
          <mxGeometry y="40" width="90" height="30" as="geometry" />
        </mxCell>
        <mxCell id="JvSo1OnFISmNt0ZYnIga-151" value="Graduation" style="rounded=0;whiteSpace=wrap;html=1;" vertex="1" parent="JvSo1OnFISmNt0ZYnIga-103">
          <mxGeometry y="70" width="90" height="30" as="geometry" />
        </mxCell>
        <mxCell id="JvSo1OnFISmNt0ZYnIga-152" value="Student Profile" style="rounded=0;whiteSpace=wrap;html=1;" vertex="1" parent="JvSo1OnFISmNt0ZYnIga-103">
          <mxGeometry y="100" width="90" height="30" as="geometry" />
        </mxCell>
        <mxCell id="JvSo1OnFISmNt0ZYnIga-117" value="" style="group" connectable="0" vertex="1" parent="1">
          <mxGeometry x="1160" y="1020" width="440" height="230" as="geometry" />
        </mxCell>
        <mxCell id="JvSo1OnFISmNt0ZYnIga-118" value="" style="rounded=0;whiteSpace=wrap;html=1;container=0;" vertex="1" parent="JvSo1OnFISmNt0ZYnIga-117">
          <mxGeometry width="440" height="230" as="geometry" />
        </mxCell>
        <mxCell id="JvSo1OnFISmNt0ZYnIga-119" value="" style="rounded=0;whiteSpace=wrap;html=1;container=0;" vertex="1" parent="JvSo1OnFISmNt0ZYnIga-117">
          <mxGeometry width="440" height="40" as="geometry" />
        </mxCell>
        <mxCell id="JvSo1OnFISmNt0ZYnIga-120" value="" style="rounded=0;whiteSpace=wrap;html=1;container=0;" vertex="1" parent="JvSo1OnFISmNt0ZYnIga-117">
          <mxGeometry y="40" width="90" height="190" as="geometry" />
        </mxCell>
        <mxCell id="JvSo1OnFISmNt0ZYnIga-121" value="" style="ellipse;whiteSpace=wrap;html=1;aspect=fixed;container=0;" vertex="1" parent="JvSo1OnFISmNt0ZYnIga-117">
          <mxGeometry x="403" y="5" width="30" height="30" as="geometry" />
        </mxCell>
        <mxCell id="JvSo1OnFISmNt0ZYnIga-122" value="User Name" style="text;html=1;strokeColor=none;fillColor=none;align=center;verticalAlign=middle;whiteSpace=wrap;rounded=0;container=0;" vertex="1" parent="JvSo1OnFISmNt0ZYnIga-117">
          <mxGeometry x="330" y="6" width="73" height="30" as="geometry" />
        </mxCell>
        <mxCell id="JvSo1OnFISmNt0ZYnIga-123" value="Student Management System" style="text;html=1;strokeColor=none;fillColor=none;align=center;verticalAlign=middle;whiteSpace=wrap;rounded=0;container=0;" vertex="1" parent="JvSo1OnFISmNt0ZYnIga-117">
          <mxGeometry y="6" width="180" height="30" as="geometry" />
        </mxCell>
        <mxCell id="JvSo1OnFISmNt0ZYnIga-124" value="Cources" style="rounded=0;whiteSpace=wrap;html=1;fillColor=#f5f5f5;strokeColor=#666666;fontColor=#333333;" vertex="1" parent="JvSo1OnFISmNt0ZYnIga-117">
          <mxGeometry y="40" width="90" height="30" as="geometry" />
        </mxCell>
        <mxCell id="JvSo1OnFISmNt0ZYnIga-138" value="" style="rounded=1;whiteSpace=wrap;html=1;" vertex="1" parent="JvSo1OnFISmNt0ZYnIga-117">
          <mxGeometry x="57.5" y="10" width="325" height="210" as="geometry" />
        </mxCell>
        <mxCell id="JvSo1OnFISmNt0ZYnIga-144" value="Date of Birth" style="text;html=1;strokeColor=none;fillColor=none;align=center;verticalAlign=middle;whiteSpace=wrap;rounded=0;" vertex="1" parent="JvSo1OnFISmNt0ZYnIga-117">
          <mxGeometry x="70" y="26" width="75" height="30" as="geometry" />
        </mxCell>
        <mxCell id="JvSo1OnFISmNt0ZYnIga-146" value="Contact Information" style="text;html=1;strokeColor=none;fillColor=none;align=center;verticalAlign=middle;whiteSpace=wrap;rounded=0;" vertex="1" parent="JvSo1OnFISmNt0ZYnIga-117">
          <mxGeometry x="70" y="56" width="110" height="30" as="geometry" />
        </mxCell>
        <mxCell id="JvSo1OnFISmNt0ZYnIga-147" value="Gender" style="text;html=1;strokeColor=none;fillColor=none;align=left;verticalAlign=middle;whiteSpace=wrap;rounded=0;" vertex="1" parent="JvSo1OnFISmNt0ZYnIga-117">
          <mxGeometry x="70" y="86" width="110" height="30" as="geometry" />
        </mxCell>
        <mxCell id="JvSo1OnFISmNt0ZYnIga-148" value="Nationality" style="text;html=1;strokeColor=none;fillColor=none;align=left;verticalAlign=middle;whiteSpace=wrap;rounded=0;" vertex="1" parent="JvSo1OnFISmNt0ZYnIga-117">
          <mxGeometry x="70" y="116" width="110" height="30" as="geometry" />
        </mxCell>
        <mxCell id="JvSo1OnFISmNt0ZYnIga-149" value="Create" style="rounded=1;whiteSpace=wrap;html=1;" vertex="1" parent="JvSo1OnFISmNt0ZYnIga-117">
          <mxGeometry x="290" y="180" width="73" height="22" as="geometry" />
        </mxCell>
        <mxCell id="JvSo1OnFISmNt0ZYnIga-140" value="student account not available" style="edgeStyle=orthogonalEdgeStyle;rounded=0;orthogonalLoop=1;jettySize=auto;html=1;" edge="1" parent="1" source="JvSo1OnFISmNt0ZYnIga-139" target="JvSo1OnFISmNt0ZYnIga-138">
          <mxGeometry relative="1" as="geometry">
            <Array as="points">
              <mxPoint x="1080" y="1135" />
            </Array>
          </mxGeometry>
        </mxCell>
        <mxCell id="JvSo1OnFISmNt0ZYnIga-141" value="student and enrolling into new subject" style="edgeStyle=orthogonalEdgeStyle;rounded=0;orthogonalLoop=1;jettySize=auto;html=1;entryX=0.25;entryY=1;entryDx=0;entryDy=0;" edge="1" parent="1" source="JvSo1OnFISmNt0ZYnIga-139" target="JvSo1OnFISmNt0ZYnIga-67">
          <mxGeometry relative="1" as="geometry">
            <Array as="points">
              <mxPoint x="1080" y="1520" />
              <mxPoint x="1856" y="1520" />
            </Array>
          </mxGeometry>
        </mxCell>
        <mxCell id="JvSo1OnFISmNt0ZYnIga-139" value="" style="rhombus;whiteSpace=wrap;html=1;" vertex="1" parent="1">
          <mxGeometry x="1040" y="1200" width="80" height="80" as="geometry" />
        </mxCell>
        <mxCell id="JvSo1OnFISmNt0ZYnIga-142" value="1. student creation" style="edgeStyle=orthogonalEdgeStyle;rounded=0;orthogonalLoop=1;jettySize=auto;html=1;entryX=0;entryY=0.5;entryDx=0;entryDy=0;exitX=1;exitY=0.5;exitDx=0;exitDy=0;" edge="1" parent="1">
          <mxGeometry relative="1" as="geometry">
            <mxPoint x="1540" y="1090" as="sourcePoint" />
            <mxPoint x="1772.5" y="1090" as="targetPoint" />
          </mxGeometry>
        </mxCell>
        <mxCell id="JvSo1OnFISmNt0ZYnIga-143" value="2. subject enrolling" style="edgeStyle=orthogonalEdgeStyle;rounded=0;orthogonalLoop=1;jettySize=auto;html=1;entryX=0;entryY=0.5;entryDx=0;entryDy=0;exitX=1;exitY=0.5;exitDx=0;exitDy=0;" edge="1" parent="1">
          <mxGeometry relative="1" as="geometry">
            <mxPoint x="1540" y="1140" as="sourcePoint" />
            <mxPoint x="1772.5" y="1140" as="targetPoint" />
          </mxGeometry>
        </mxCell>
        <mxCell id="JvSo1OnFISmNt0ZYnIga-186" style="edgeStyle=orthogonalEdgeStyle;rounded=0;orthogonalLoop=1;jettySize=auto;html=1;entryX=0;entryY=0.5;entryDx=0;entryDy=0;" edge="1" parent="1" source="JvSo1OnFISmNt0ZYnIga-154" target="JvSo1OnFISmNt0ZYnIga-171">
          <mxGeometry relative="1" as="geometry" />
        </mxCell>
        <mxCell id="JvSo1OnFISmNt0ZYnIga-154" value="&lt;h1&gt;Cource&lt;/h1&gt;&lt;p&gt;Search &amp;amp; Enroll&lt;/p&gt;&lt;p&gt;View Enrolled&lt;/p&gt;" style="text;html=1;strokeColor=none;fillColor=none;spacing=5;spacingTop=-20;whiteSpace=wrap;overflow=hidden;rounded=0;" vertex="1" parent="1">
          <mxGeometry x="2503" y="1035" width="190" height="105" as="geometry" />
        </mxCell>
        <mxCell id="JvSo1OnFISmNt0ZYnIga-155" style="edgeStyle=orthogonalEdgeStyle;rounded=0;orthogonalLoop=1;jettySize=auto;html=1;entryX=0.5;entryY=1;entryDx=0;entryDy=0;" edge="1" parent="1" source="JvSo1OnFISmNt0ZYnIga-86" target="JvSo1OnFISmNt0ZYnIga-104">
          <mxGeometry relative="1" as="geometry" />
        </mxCell>
        <mxCell id="JvSo1OnFISmNt0ZYnIga-163" value="" style="group" connectable="0" vertex="1" parent="1">
          <mxGeometry x="2320" y="600" width="440" height="230" as="geometry" />
        </mxCell>
        <mxCell id="JvSo1OnFISmNt0ZYnIga-164" value="" style="rounded=0;whiteSpace=wrap;html=1;container=0;" vertex="1" parent="JvSo1OnFISmNt0ZYnIga-163">
          <mxGeometry width="440" height="230" as="geometry" />
        </mxCell>
        <mxCell id="JvSo1OnFISmNt0ZYnIga-165" value="" style="rounded=0;whiteSpace=wrap;html=1;container=0;" vertex="1" parent="JvSo1OnFISmNt0ZYnIga-163">
          <mxGeometry width="440" height="40" as="geometry" />
        </mxCell>
        <mxCell id="JvSo1OnFISmNt0ZYnIga-166" value="" style="rounded=0;whiteSpace=wrap;html=1;container=0;" vertex="1" parent="JvSo1OnFISmNt0ZYnIga-163">
          <mxGeometry y="40" width="90" height="190" as="geometry" />
        </mxCell>
        <mxCell id="JvSo1OnFISmNt0ZYnIga-167" value="" style="ellipse;whiteSpace=wrap;html=1;aspect=fixed;container=0;" vertex="1" parent="JvSo1OnFISmNt0ZYnIga-163">
          <mxGeometry x="403" y="5" width="30" height="30" as="geometry" />
        </mxCell>
        <mxCell id="JvSo1OnFISmNt0ZYnIga-168" value="User Name" style="text;html=1;strokeColor=none;fillColor=none;align=center;verticalAlign=middle;whiteSpace=wrap;rounded=0;container=0;" vertex="1" parent="JvSo1OnFISmNt0ZYnIga-163">
          <mxGeometry x="330" y="6" width="73" height="30" as="geometry" />
        </mxCell>
        <mxCell id="JvSo1OnFISmNt0ZYnIga-169" value="Student Management System" style="text;html=1;strokeColor=none;fillColor=none;align=center;verticalAlign=middle;whiteSpace=wrap;rounded=0;container=0;" vertex="1" parent="JvSo1OnFISmNt0ZYnIga-163">
          <mxGeometry y="6" width="180" height="30" as="geometry" />
        </mxCell>
        <mxCell id="JvSo1OnFISmNt0ZYnIga-171" value="Cources" style="rounded=0;whiteSpace=wrap;html=1;fillColor=#f5f5f5;fontColor=#333333;strokeColor=#666666;" vertex="1" parent="JvSo1OnFISmNt0ZYnIga-163">
          <mxGeometry y="40" width="90" height="30" as="geometry" />
        </mxCell>
        <mxCell id="JvSo1OnFISmNt0ZYnIga-172" value="Graduation" style="rounded=0;whiteSpace=wrap;html=1;" vertex="1" parent="JvSo1OnFISmNt0ZYnIga-163">
          <mxGeometry y="70" width="90" height="30" as="geometry" />
        </mxCell>
        <mxCell id="JvSo1OnFISmNt0ZYnIga-173" value="Student Profile" style="rounded=0;whiteSpace=wrap;html=1;" vertex="1" parent="JvSo1OnFISmNt0ZYnIga-163">
          <mxGeometry y="100" width="90" height="30" as="geometry" />
        </mxCell>
        <mxCell id="JvSo1OnFISmNt0ZYnIga-185" value="View Enrolled Subjects" style="text;html=1;strokeColor=none;fillColor=none;align=center;verticalAlign=middle;whiteSpace=wrap;rounded=0;" vertex="1" parent="JvSo1OnFISmNt0ZYnIga-163">
          <mxGeometry x="90" y="40" width="151" height="30" as="geometry" />
        </mxCell>
      </root>
    </mxGraphModel>
  </diagram>
  <diagram id="zvWphpjZ46tPKYuElINt" name="flow-digrams">
    <mxGraphModel grid="1" page="1" gridSize="10" guides="1" tooltips="1" connect="1" arrows="1" fold="1" pageScale="1" pageWidth="850" pageHeight="1100" math="0" shadow="0">
      <root>
        <mxCell id="0" />
        <mxCell id="1" parent="0" />
        <mxCell id="mRbnuAL4iMQwNheT_mHk-1" style="edgeStyle=orthogonalEdgeStyle;rounded=0;orthogonalLoop=1;jettySize=auto;html=1;entryX=0.5;entryY=0;entryDx=0;entryDy=0;" edge="1" parent="1" source="tOSokgNYMjDlXCKfF-Rq-1" target="mRbnuAL4iMQwNheT_mHk-2">
          <mxGeometry relative="1" as="geometry">
            <mxPoint x="104" y="-710" as="targetPoint" />
          </mxGeometry>
        </mxCell>
        <mxCell id="tOSokgNYMjDlXCKfF-Rq-1" value="Signup" style="rounded=1;whiteSpace=wrap;html=1;" vertex="1" parent="1">
          <mxGeometry x="64" y="-870" width="80" height="40" as="geometry" />
        </mxCell>
        <mxCell id="mRbnuAL4iMQwNheT_mHk-5" value="" style="edgeStyle=orthogonalEdgeStyle;rounded=0;orthogonalLoop=1;jettySize=auto;html=1;" edge="1" parent="1" source="mRbnuAL4iMQwNheT_mHk-2" target="-MN2TbvASwCT2D1RmyAd-4">
          <mxGeometry relative="1" as="geometry" />
        </mxCell>
        <mxCell id="mRbnuAL4iMQwNheT_mHk-2" value="Create new account with&lt;br&gt;&lt;div style=&quot;text-align: left;&quot;&gt;&lt;ul&gt;&lt;li&gt;&lt;span style=&quot;background-color: initial;&quot;&gt;Username&lt;/span&gt;&lt;/li&gt;&lt;li&gt;&lt;span style=&quot;background-color: initial;&quot;&gt;Password&lt;/span&gt;&lt;/li&gt;&lt;li&gt;&lt;span style=&quot;background-color: initial;&quot;&gt;First Name&lt;/span&gt;&lt;/li&gt;&lt;li&gt;&lt;span style=&quot;background-color: initial;&quot;&gt;Last Name&lt;/span&gt;&lt;/li&gt;&lt;li&gt;&lt;span style=&quot;background-color: initial;&quot;&gt;Email&lt;/span&gt;&lt;/li&gt;&lt;li&gt;&lt;span style=&quot;background-color: initial;&quot;&gt;Phone Number&lt;/span&gt;&lt;/li&gt;&lt;/ul&gt;&lt;/div&gt;" style="rounded=1;whiteSpace=wrap;html=1;" vertex="1" parent="1">
          <mxGeometry x="39" y="-790" width="130" height="160" as="geometry" />
        </mxCell>
        <mxCell id="mRbnuAL4iMQwNheT_mHk-7" value="" style="edgeStyle=orthogonalEdgeStyle;rounded=0;orthogonalLoop=1;jettySize=auto;html=1;" edge="1" parent="1" source="mRbnuAL4iMQwNheT_mHk-4" target="mRbnuAL4iMQwNheT_mHk-6">
          <mxGeometry relative="1" as="geometry" />
        </mxCell>
        <mxCell id="mRbnuAL4iMQwNheT_mHk-4" value="Send a email with verification link" style="whiteSpace=wrap;html=1;rounded=1;" vertex="1" parent="1">
          <mxGeometry x="44" y="-520" width="120" height="60" as="geometry" />
        </mxCell>
        <mxCell id="mRbnuAL4iMQwNheT_mHk-6" value="Activate account" style="whiteSpace=wrap;html=1;rounded=1;" vertex="1" parent="1">
          <mxGeometry x="44" y="-435" width="120" height="60" as="geometry" />
        </mxCell>
        <mxCell id="uNz1IJ8CEdJXZ2DrRNVN-1" style="edgeStyle=orthogonalEdgeStyle;rounded=0;orthogonalLoop=1;jettySize=auto;html=1;entryX=0.5;entryY=0;entryDx=0;entryDy=0;" edge="1" parent="1" source="uNz1IJ8CEdJXZ2DrRNVN-2" target="uNz1IJ8CEdJXZ2DrRNVN-4">
          <mxGeometry relative="1" as="geometry">
            <mxPoint x="344" y="-710" as="targetPoint" />
          </mxGeometry>
        </mxCell>
        <mxCell id="uNz1IJ8CEdJXZ2DrRNVN-2" value="Fogot password" style="rounded=1;whiteSpace=wrap;html=1;" vertex="1" parent="1">
          <mxGeometry x="286" y="-870" width="115" height="40" as="geometry" />
        </mxCell>
        <mxCell id="uNz1IJ8CEdJXZ2DrRNVN-3" value="" style="edgeStyle=orthogonalEdgeStyle;rounded=0;orthogonalLoop=1;jettySize=auto;html=1;" edge="1" parent="1" source="uNz1IJ8CEdJXZ2DrRNVN-4" target="uNz1IJ8CEdJXZ2DrRNVN-6">
          <mxGeometry relative="1" as="geometry" />
        </mxCell>
        <mxCell id="uNz1IJ8CEdJXZ2DrRNVN-4" value="Give phone numer or Email" style="rounded=1;whiteSpace=wrap;html=1;" vertex="1" parent="1">
          <mxGeometry x="279" y="-790" width="130" height="50" as="geometry" />
        </mxCell>
        <mxCell id="uNz1IJ8CEdJXZ2DrRNVN-5" value="" style="edgeStyle=orthogonalEdgeStyle;rounded=0;orthogonalLoop=1;jettySize=auto;html=1;" edge="1" parent="1" source="uNz1IJ8CEdJXZ2DrRNVN-6" target="uNz1IJ8CEdJXZ2DrRNVN-7">
          <mxGeometry relative="1" as="geometry" />
        </mxCell>
        <mxCell id="uNz1IJ8CEdJXZ2DrRNVN-6" value="Send a email with reset password link link" style="whiteSpace=wrap;html=1;rounded=1;" vertex="1" parent="1">
          <mxGeometry x="284" y="-700" width="120" height="60" as="geometry" />
        </mxCell>
        <mxCell id="uNz1IJ8CEdJXZ2DrRNVN-7" value="Change password" style="whiteSpace=wrap;html=1;rounded=1;" vertex="1" parent="1">
          <mxGeometry x="284" y="-600" width="120" height="60" as="geometry" />
        </mxCell>
        <mxCell id="caai7Rmub5Jj121KvxgI-1" style="edgeStyle=orthogonalEdgeStyle;rounded=0;orthogonalLoop=1;jettySize=auto;html=1;entryX=0.5;entryY=0;entryDx=0;entryDy=0;" edge="1" parent="1" source="caai7Rmub5Jj121KvxgI-2" target="caai7Rmub5Jj121KvxgI-4">
          <mxGeometry relative="1" as="geometry">
            <mxPoint x="564" y="-710" as="targetPoint" />
          </mxGeometry>
        </mxCell>
        <mxCell id="caai7Rmub5Jj121KvxgI-2" value="Signin" style="rounded=1;whiteSpace=wrap;html=1;" vertex="1" parent="1">
          <mxGeometry x="549" y="-880" width="80" height="40" as="geometry" />
        </mxCell>
        <mxCell id="caai7Rmub5Jj121KvxgI-3" value="if account activated" style="edgeStyle=orthogonalEdgeStyle;rounded=0;orthogonalLoop=1;jettySize=auto;html=1;exitX=1;exitY=0.5;exitDx=0;exitDy=0;" edge="1" parent="1" source="NBEMpPBtKFh5TRl6-UOV-1" target="caai7Rmub5Jj121KvxgI-6">
          <mxGeometry relative="1" as="geometry" />
        </mxCell>
        <mxCell id="NBEMpPBtKFh5TRl6-UOV-3" style="edgeStyle=orthogonalEdgeStyle;rounded=0;orthogonalLoop=1;jettySize=auto;html=1;entryX=0.5;entryY=0;entryDx=0;entryDy=0;" edge="1" parent="1" source="caai7Rmub5Jj121KvxgI-4" target="NBEMpPBtKFh5TRl6-UOV-1">
          <mxGeometry relative="1" as="geometry" />
        </mxCell>
        <mxCell id="caai7Rmub5Jj121KvxgI-4" value="Login with following details&lt;br&gt;&lt;div style=&quot;text-align: left;&quot;&gt;&lt;ul&gt;&lt;li&gt;&lt;span style=&quot;background-color: initial;&quot;&gt;Username&lt;/span&gt;&lt;/li&gt;&lt;li&gt;&lt;span style=&quot;background-color: initial;&quot;&gt;Password&lt;/span&gt;&lt;/li&gt;&lt;/ul&gt;&lt;/div&gt;" style="rounded=1;whiteSpace=wrap;html=1;" vertex="1" parent="1">
          <mxGeometry x="524" y="-790" width="130" height="90" as="geometry" />
        </mxCell>
        <mxCell id="caai7Rmub5Jj121KvxgI-5" value="" style="edgeStyle=orthogonalEdgeStyle;rounded=0;orthogonalLoop=1;jettySize=auto;html=1;" edge="1" parent="1" source="caai7Rmub5Jj121KvxgI-6" target="caai7Rmub5Jj121KvxgI-7">
          <mxGeometry relative="1" as="geometry" />
        </mxCell>
        <mxCell id="Djaen0gepatFNI8D5AJ9-1" value="" style="edgeStyle=orthogonalEdgeStyle;rounded=0;orthogonalLoop=1;jettySize=auto;html=1;" edge="1" parent="1" source="caai7Rmub5Jj121KvxgI-6" target="caai7Rmub5Jj121KvxgI-7">
          <mxGeometry relative="1" as="geometry" />
        </mxCell>
        <mxCell id="caai7Rmub5Jj121KvxgI-6" value="Go to the welcome screen" style="whiteSpace=wrap;html=1;rounded=1;" vertex="1" parent="1">
          <mxGeometry x="604" y="-540" width="120" height="60" as="geometry" />
        </mxCell>
        <mxCell id="caai7Rmub5Jj121KvxgI-7" value="Store the encrypted json web token" style="whiteSpace=wrap;html=1;rounded=1;" vertex="1" parent="1">
          <mxGeometry x="604" y="-435" width="120" height="60" as="geometry" />
        </mxCell>
        <mxCell id="NBEMpPBtKFh5TRl6-UOV-6" style="edgeStyle=orthogonalEdgeStyle;rounded=0;orthogonalLoop=1;jettySize=auto;html=1;entryX=0.5;entryY=0;entryDx=0;entryDy=0;" edge="1" parent="1" source="NBEMpPBtKFh5TRl6-UOV-1" target="NBEMpPBtKFh5TRl6-UOV-5">
          <mxGeometry relative="1" as="geometry">
            <Array as="points">
              <mxPoint x="509" y="-620" />
            </Array>
          </mxGeometry>
        </mxCell>
        <mxCell id="NBEMpPBtKFh5TRl6-UOV-7" value="if accout is not activated" style="edgeLabel;html=1;align=center;verticalAlign=middle;resizable=0;points=[];" connectable="0" vertex="1" parent="NBEMpPBtKFh5TRl6-UOV-6">
          <mxGeometry x="0.1847" y="-3" relative="1" as="geometry">
            <mxPoint as="offset" />
          </mxGeometry>
        </mxCell>
        <mxCell id="NBEMpPBtKFh5TRl6-UOV-1" value="" style="rhombus;whiteSpace=wrap;html=1;" vertex="1" parent="1">
          <mxGeometry x="559" y="-650" width="60" height="60" as="geometry" />
        </mxCell>
        <mxCell id="NBEMpPBtKFh5TRl6-UOV-5" value="send a email again for activation by checking the time sent" style="whiteSpace=wrap;html=1;rounded=1;" vertex="1" parent="1">
          <mxGeometry x="449" y="-540" width="120" height="60" as="geometry" />
        </mxCell>
        <mxCell id="WM3Iwk8kGh7KnFoA11ui-1" style="edgeStyle=orthogonalEdgeStyle;rounded=0;orthogonalLoop=1;jettySize=auto;html=1;entryX=0.5;entryY=0;entryDx=0;entryDy=0;" edge="1" parent="1" source="WM3Iwk8kGh7KnFoA11ui-2" target="WM3Iwk8kGh7KnFoA11ui-5">
          <mxGeometry relative="1" as="geometry">
            <mxPoint x="641.5" y="-180" as="targetPoint" />
          </mxGeometry>
        </mxCell>
        <mxCell id="WM3Iwk8kGh7KnFoA11ui-2" value="check graduation status" style="rounded=1;whiteSpace=wrap;html=1;" vertex="1" parent="1">
          <mxGeometry x="626.5" y="-350" width="80" height="40" as="geometry" />
        </mxCell>
        <mxCell id="WM3Iwk8kGh7KnFoA11ui-3" value="exceeding or equals" style="edgeStyle=orthogonalEdgeStyle;rounded=0;orthogonalLoop=1;jettySize=auto;html=1;exitX=1;exitY=0.5;exitDx=0;exitDy=0;" edge="1" parent="1" source="WM3Iwk8kGh7KnFoA11ui-12" target="WM3Iwk8kGh7KnFoA11ui-8">
          <mxGeometry x="0.2" relative="1" as="geometry">
            <mxPoint as="offset" />
          </mxGeometry>
        </mxCell>
        <mxCell id="WM3Iwk8kGh7KnFoA11ui-4" style="edgeStyle=orthogonalEdgeStyle;rounded=0;orthogonalLoop=1;jettySize=auto;html=1;entryX=0.5;entryY=0;entryDx=0;entryDy=0;" edge="1" parent="1" source="WM3Iwk8kGh7KnFoA11ui-5" target="WM3Iwk8kGh7KnFoA11ui-12">
          <mxGeometry relative="1" as="geometry" />
        </mxCell>
        <mxCell id="WM3Iwk8kGh7KnFoA11ui-5" value="how many cources were done for the graduation is it exceeding 15 or more" style="rounded=1;whiteSpace=wrap;html=1;" vertex="1" parent="1">
          <mxGeometry x="601.5" y="-260" width="130" height="90" as="geometry" />
        </mxCell>
        <mxCell id="WM3Iwk8kGh7KnFoA11ui-7" value="" style="edgeStyle=orthogonalEdgeStyle;rounded=0;orthogonalLoop=1;jettySize=auto;html=1;" edge="1" parent="1" source="WM3Iwk8kGh7KnFoA11ui-8" target="-MN2TbvASwCT2D1RmyAd-11">
          <mxGeometry relative="1" as="geometry" />
        </mxCell>
        <mxCell id="WM3Iwk8kGh7KnFoA11ui-8" value="checking for outstanding invoices" style="whiteSpace=wrap;html=1;rounded=1;" vertex="1" parent="1">
          <mxGeometry x="681.5" y="-10" width="120" height="60" as="geometry" />
        </mxCell>
        <mxCell id="WM3Iwk8kGh7KnFoA11ui-9" value="payment message and link to the payment page" style="whiteSpace=wrap;html=1;rounded=1;" vertex="1" parent="1">
          <mxGeometry x="526.5" y="210" width="120" height="60" as="geometry" />
        </mxCell>
        <mxCell id="WM3Iwk8kGh7KnFoA11ui-10" style="edgeStyle=orthogonalEdgeStyle;rounded=0;orthogonalLoop=1;jettySize=auto;html=1;entryX=0.5;entryY=0;entryDx=0;entryDy=0;" edge="1" parent="1" source="WM3Iwk8kGh7KnFoA11ui-12" target="WM3Iwk8kGh7KnFoA11ui-13">
          <mxGeometry relative="1" as="geometry">
            <Array as="points">
              <mxPoint x="586.5" y="-90" />
            </Array>
          </mxGeometry>
        </mxCell>
        <mxCell id="WM3Iwk8kGh7KnFoA11ui-11" value="lesser than 15" style="edgeLabel;html=1;align=center;verticalAlign=middle;resizable=0;points=[];" connectable="0" vertex="1" parent="WM3Iwk8kGh7KnFoA11ui-10">
          <mxGeometry x="0.1847" y="-3" relative="1" as="geometry">
            <mxPoint as="offset" />
          </mxGeometry>
        </mxCell>
        <mxCell id="WM3Iwk8kGh7KnFoA11ui-12" value="" style="rhombus;whiteSpace=wrap;html=1;" vertex="1" parent="1">
          <mxGeometry x="636.5" y="-120" width="60" height="60" as="geometry" />
        </mxCell>
        <mxCell id="WM3Iwk8kGh7KnFoA11ui-13" value="Let the student know about the amound of cources need to do" style="whiteSpace=wrap;html=1;rounded=1;" vertex="1" parent="1">
          <mxGeometry x="526.5" y="-10" width="120" height="60" as="geometry" />
        </mxCell>
        <mxCell id="ZTkfm4D9cl8H15cfW4M2-1" style="edgeStyle=orthogonalEdgeStyle;rounded=0;orthogonalLoop=1;jettySize=auto;html=1;entryX=0.5;entryY=0;entryDx=0;entryDy=0;" edge="1" parent="1" source="ZTkfm4D9cl8H15cfW4M2-2" target="ZTkfm4D9cl8H15cfW4M2-5">
          <mxGeometry relative="1" as="geometry">
            <mxPoint x="179" y="-170" as="targetPoint" />
          </mxGeometry>
        </mxCell>
        <mxCell id="ZTkfm4D9cl8H15cfW4M2-2" value="search cources" style="rounded=1;whiteSpace=wrap;html=1;" vertex="1" parent="1">
          <mxGeometry x="164" y="-340" width="80" height="40" as="geometry" />
        </mxCell>
        <mxCell id="ZTkfm4D9cl8H15cfW4M2-3" value="already a student" style="edgeStyle=orthogonalEdgeStyle;rounded=0;orthogonalLoop=1;jettySize=auto;html=1;exitX=1;exitY=0.5;exitDx=0;exitDy=0;" edge="1" parent="1" source="ZTkfm4D9cl8H15cfW4M2-12" target="ZTkfm4D9cl8H15cfW4M2-8">
          <mxGeometry relative="1" as="geometry" />
        </mxCell>
        <mxCell id="A0XwTULXEgFqlcS3xS8s-7" value="" style="edgeStyle=orthogonalEdgeStyle;rounded=0;orthogonalLoop=1;jettySize=auto;html=1;entryX=0.5;entryY=0;entryDx=0;entryDy=0;" edge="1" parent="1" source="ZTkfm4D9cl8H15cfW4M2-5" target="A0XwTULXEgFqlcS3xS8s-8">
          <mxGeometry relative="1" as="geometry" />
        </mxCell>
        <mxCell id="ZTkfm4D9cl8H15cfW4M2-5" value="get the list of cource id&#39;s" style="rounded=1;whiteSpace=wrap;html=1;" vertex="1" parent="1">
          <mxGeometry x="139" y="-250" width="130" height="40" as="geometry" />
        </mxCell>
        <mxCell id="ZTkfm4D9cl8H15cfW4M2-6" value="" style="edgeStyle=orthogonalEdgeStyle;rounded=0;orthogonalLoop=1;jettySize=auto;html=1;" edge="1" parent="1" source="ZTkfm4D9cl8H15cfW4M2-8" target="ZTkfm4D9cl8H15cfW4M2-9">
          <mxGeometry relative="1" as="geometry" />
        </mxCell>
        <mxCell id="ZTkfm4D9cl8H15cfW4M2-7" value="" style="edgeStyle=orthogonalEdgeStyle;rounded=0;orthogonalLoop=1;jettySize=auto;html=1;" edge="1" parent="1" source="ZTkfm4D9cl8H15cfW4M2-8" target="ZTkfm4D9cl8H15cfW4M2-9">
          <mxGeometry relative="1" as="geometry" />
        </mxCell>
        <mxCell id="ZTkfm4D9cl8H15cfW4M2-8" value="enroll for the cources" style="whiteSpace=wrap;html=1;rounded=1;" vertex="1" parent="1">
          <mxGeometry x="219" width="120" height="60" as="geometry" />
        </mxCell>
        <mxCell id="ZTkfm4D9cl8H15cfW4M2-9" value="display the enrolled cources" style="whiteSpace=wrap;html=1;rounded=1;" vertex="1" parent="1">
          <mxGeometry x="219" y="105" width="120" height="60" as="geometry" />
        </mxCell>
        <mxCell id="ZTkfm4D9cl8H15cfW4M2-10" style="edgeStyle=orthogonalEdgeStyle;rounded=0;orthogonalLoop=1;jettySize=auto;html=1;entryX=0.5;entryY=0;entryDx=0;entryDy=0;" edge="1" parent="1" source="ZTkfm4D9cl8H15cfW4M2-12" target="ZTkfm4D9cl8H15cfW4M2-13">
          <mxGeometry relative="1" as="geometry">
            <Array as="points">
              <mxPoint x="124" y="-80" />
            </Array>
          </mxGeometry>
        </mxCell>
        <mxCell id="ZTkfm4D9cl8H15cfW4M2-11" value="not a student" style="edgeLabel;html=1;align=center;verticalAlign=middle;resizable=0;points=[];" connectable="0" vertex="1" parent="ZTkfm4D9cl8H15cfW4M2-10">
          <mxGeometry x="0.1847" y="-3" relative="1" as="geometry">
            <mxPoint as="offset" />
          </mxGeometry>
        </mxCell>
        <mxCell id="ZTkfm4D9cl8H15cfW4M2-12" value="" style="rhombus;whiteSpace=wrap;html=1;" vertex="1" parent="1">
          <mxGeometry x="174" y="-110" width="60" height="60" as="geometry" />
        </mxCell>
        <mxCell id="A0XwTULXEgFqlcS3xS8s-11" value="" style="edgeStyle=orthogonalEdgeStyle;rounded=0;orthogonalLoop=1;jettySize=auto;html=1;" edge="1" parent="1" source="ZTkfm4D9cl8H15cfW4M2-13" target="A0XwTULXEgFqlcS3xS8s-10">
          <mxGeometry relative="1" as="geometry" />
        </mxCell>
        <mxCell id="ZTkfm4D9cl8H15cfW4M2-13" value="create student account" style="whiteSpace=wrap;html=1;rounded=1;" vertex="1" parent="1">
          <mxGeometry x="64" width="120" height="60" as="geometry" />
        </mxCell>
        <mxCell id="ZTkfm4D9cl8H15cfW4M2-14" value="" style="endArrow=none;dashed=1;html=1;rounded=0;" edge="1" parent="1">
          <mxGeometry width="50" height="50" relative="1" as="geometry">
            <mxPoint x="39" y="-360" as="sourcePoint" />
            <mxPoint x="819" y="-360" as="targetPoint" />
          </mxGeometry>
        </mxCell>
        <mxCell id="ZTkfm4D9cl8H15cfW4M2-15" value="Authentication Process" style="text;html=1;align=center;verticalAlign=middle;whiteSpace=wrap;rounded=0;" vertex="1" parent="1">
          <mxGeometry x="19" y="-930" width="60" height="30" as="geometry" />
        </mxCell>
        <mxCell id="ZTkfm4D9cl8H15cfW4M2-16" value="Cource Process" style="text;html=1;align=center;verticalAlign=middle;whiteSpace=wrap;rounded=0;" vertex="1" parent="1">
          <mxGeometry x="39" y="-340" width="60" height="30" as="geometry" />
        </mxCell>
        <mxCell id="A0XwTULXEgFqlcS3xS8s-1" value="&lt;h1&gt;&lt;span style=&quot;background-color: initial;&quot;&gt;Student Process&lt;/span&gt;&lt;br&gt;&lt;/h1&gt;" style="text;html=1;spacing=5;spacingTop=-20;whiteSpace=wrap;overflow=hidden;rounded=0;" vertex="1" parent="1">
          <mxGeometry x="314" y="-1040" width="205" height="30" as="geometry" />
        </mxCell>
        <mxCell id="A0XwTULXEgFqlcS3xS8s-3" value="" style="endArrow=none;html=1;rounded=0;" edge="1" parent="1">
          <mxGeometry width="50" height="50" relative="1" as="geometry">
            <mxPoint x="839" y="1309.0908203125" as="sourcePoint" />
            <mxPoint x="839" y="-1090" as="targetPoint" />
          </mxGeometry>
        </mxCell>
        <mxCell id="A0XwTULXEgFqlcS3xS8s-9" value="" style="edgeStyle=orthogonalEdgeStyle;rounded=0;orthogonalLoop=1;jettySize=auto;html=1;entryX=0.5;entryY=0;entryDx=0;entryDy=0;" edge="1" parent="1" source="A0XwTULXEgFqlcS3xS8s-8" target="ZTkfm4D9cl8H15cfW4M2-12">
          <mxGeometry relative="1" as="geometry" />
        </mxCell>
        <mxCell id="A0XwTULXEgFqlcS3xS8s-8" value="check whether is already a student" style="rounded=1;whiteSpace=wrap;html=1;" vertex="1" parent="1">
          <mxGeometry x="99" y="-180" width="210" height="40" as="geometry" />
        </mxCell>
        <mxCell id="-MN2TbvASwCT2D1RmyAd-2" value="" style="edgeStyle=orthogonalEdgeStyle;rounded=0;orthogonalLoop=1;jettySize=auto;html=1;" edge="1" parent="1" source="A0XwTULXEgFqlcS3xS8s-10" target="-MN2TbvASwCT2D1RmyAd-1">
          <mxGeometry relative="1" as="geometry" />
        </mxCell>
        <mxCell id="A0XwTULXEgFqlcS3xS8s-10" value="get the following detils from the user&lt;br&gt;&lt;ol&gt;&lt;li style=&quot;text-align: left;&quot;&gt;Address&lt;/li&gt;&lt;li style=&quot;text-align: left;&quot;&gt;DOB&lt;/li&gt;&lt;li style=&quot;text-align: left;&quot;&gt;Parent details&lt;/li&gt;&lt;li style=&quot;text-align: left;&quot;&gt;Immergency contacts&lt;/li&gt;&lt;li style=&quot;text-align: left;&quot;&gt;Nationality&lt;br&gt;etc..&lt;/li&gt;&lt;/ol&gt;" style="whiteSpace=wrap;html=1;rounded=1;" vertex="1" parent="1">
          <mxGeometry x="64" y="105" width="120" height="165" as="geometry" />
        </mxCell>
        <mxCell id="-MN2TbvASwCT2D1RmyAd-10" style="edgeStyle=orthogonalEdgeStyle;rounded=0;orthogonalLoop=1;jettySize=auto;html=1;entryX=0.5;entryY=0;entryDx=0;entryDy=0;" edge="1" parent="1" source="-MN2TbvASwCT2D1RmyAd-1" target="-MN2TbvASwCT2D1RmyAd-8">
          <mxGeometry relative="1" as="geometry" />
        </mxCell>
        <mxCell id="-MN2TbvASwCT2D1RmyAd-1" value="send details to create as a student and marke the student status as STUDENT" style="rounded=1;whiteSpace=wrap;html=1;" vertex="1" parent="1">
          <mxGeometry x="64" y="320" width="120" height="60" as="geometry" />
        </mxCell>
        <mxCell id="-MN2TbvASwCT2D1RmyAd-5" style="edgeStyle=orthogonalEdgeStyle;rounded=0;orthogonalLoop=1;jettySize=auto;html=1;" edge="1" parent="1" source="-MN2TbvASwCT2D1RmyAd-4" target="mRbnuAL4iMQwNheT_mHk-4">
          <mxGeometry relative="1" as="geometry" />
        </mxCell>
        <mxCell id="-MN2TbvASwCT2D1RmyAd-4" value="Create a GUEST status account" style="rounded=1;whiteSpace=wrap;html=1;" vertex="1" parent="1">
          <mxGeometry x="44" y="-600" width="120" height="60" as="geometry" />
        </mxCell>
        <mxCell id="-MN2TbvASwCT2D1RmyAd-6" value="" style="edgeStyle=orthogonalEdgeStyle;rounded=0;orthogonalLoop=1;jettySize=auto;html=1;" edge="1" parent="1" source="-MN2TbvASwCT2D1RmyAd-8" target="-MN2TbvASwCT2D1RmyAd-9">
          <mxGeometry relative="1" as="geometry" />
        </mxCell>
        <mxCell id="-MN2TbvASwCT2D1RmyAd-7" value="" style="edgeStyle=orthogonalEdgeStyle;rounded=0;orthogonalLoop=1;jettySize=auto;html=1;" edge="1" parent="1" source="-MN2TbvASwCT2D1RmyAd-8" target="-MN2TbvASwCT2D1RmyAd-9">
          <mxGeometry relative="1" as="geometry" />
        </mxCell>
        <mxCell id="-MN2TbvASwCT2D1RmyAd-8" value="enroll for the cources" style="whiteSpace=wrap;html=1;rounded=1;" vertex="1" parent="1">
          <mxGeometry x="64" y="430" width="120" height="60" as="geometry" />
        </mxCell>
        <mxCell id="-MN2TbvASwCT2D1RmyAd-9" value="display the enrolled cources" style="whiteSpace=wrap;html=1;rounded=1;" vertex="1" parent="1">
          <mxGeometry x="64" y="535" width="120" height="60" as="geometry" />
        </mxCell>
        <mxCell id="-MN2TbvASwCT2D1RmyAd-12" value="" style="edgeStyle=orthogonalEdgeStyle;rounded=0;orthogonalLoop=1;jettySize=auto;html=1;" edge="1" parent="1" source="WM3Iwk8kGh7KnFoA11ui-8" target="-MN2TbvASwCT2D1RmyAd-11">
          <mxGeometry relative="1" as="geometry">
            <mxPoint x="742" y="50" as="sourcePoint" />
            <mxPoint x="649" y="190" as="targetPoint" />
          </mxGeometry>
        </mxCell>
        <mxCell id="-MN2TbvASwCT2D1RmyAd-13" style="edgeStyle=orthogonalEdgeStyle;rounded=0;orthogonalLoop=1;jettySize=auto;html=1;entryX=0.5;entryY=0;entryDx=0;entryDy=0;" edge="1" parent="1" source="-MN2TbvASwCT2D1RmyAd-11" target="WM3Iwk8kGh7KnFoA11ui-9">
          <mxGeometry relative="1" as="geometry">
            <Array as="points">
              <mxPoint x="587" y="150" />
              <mxPoint x="587" y="190" />
            </Array>
          </mxGeometry>
        </mxCell>
        <mxCell id="-MN2TbvASwCT2D1RmyAd-17" value="if out standing" style="edgeLabel;html=1;align=center;verticalAlign=middle;resizable=0;points=[];" connectable="0" vertex="1" parent="-MN2TbvASwCT2D1RmyAd-13">
          <mxGeometry x="0.3488" y="-2" relative="1" as="geometry">
            <mxPoint as="offset" />
          </mxGeometry>
        </mxCell>
        <mxCell id="-MN2TbvASwCT2D1RmyAd-15" value="" style="edgeStyle=orthogonalEdgeStyle;rounded=0;orthogonalLoop=1;jettySize=auto;html=1;entryX=0.5;entryY=0;entryDx=0;entryDy=0;" edge="1" parent="1" source="-MN2TbvASwCT2D1RmyAd-11" target="-MN2TbvASwCT2D1RmyAd-16">
          <mxGeometry relative="1" as="geometry">
            <mxPoint x="799" y="190" as="targetPoint" />
            <Array as="points">
              <mxPoint x="767" y="150" />
              <mxPoint x="767" y="200" />
              <mxPoint x="767" y="200" />
            </Array>
          </mxGeometry>
        </mxCell>
        <mxCell id="-MN2TbvASwCT2D1RmyAd-18" value="no outstanding" style="edgeLabel;html=1;align=center;verticalAlign=middle;resizable=0;points=[];" connectable="0" vertex="1" parent="-MN2TbvASwCT2D1RmyAd-15">
          <mxGeometry x="0.2213" y="1" relative="1" as="geometry">
            <mxPoint as="offset" />
          </mxGeometry>
        </mxCell>
        <mxCell id="-MN2TbvASwCT2D1RmyAd-11" value="" style="rhombus;whiteSpace=wrap;html=1;" vertex="1" parent="1">
          <mxGeometry x="646.5" y="120" width="60" height="60" as="geometry" />
        </mxCell>
        <mxCell id="-MN2TbvASwCT2D1RmyAd-16" value="show congratulations for the graduation" style="whiteSpace=wrap;html=1;rounded=1;" vertex="1" parent="1">
          <mxGeometry x="706.5" y="210" width="120" height="60" as="geometry" />
        </mxCell>
        <mxCell id="-MN2TbvASwCT2D1RmyAd-19" value="Graduation Process" style="text;html=1;align=center;verticalAlign=middle;whiteSpace=wrap;rounded=0;" vertex="1" parent="1">
          <mxGeometry x="394" y="-345" width="60" height="30" as="geometry" />
        </mxCell>
        <mxCell id="-MN2TbvASwCT2D1RmyAd-20" value="" style="endArrow=none;dashed=1;html=1;rounded=0;" edge="1" parent="1">
          <mxGeometry width="50" height="50" relative="1" as="geometry">
            <mxPoint x="34" y="640" as="sourcePoint" />
            <mxPoint x="814" y="640" as="targetPoint" />
          </mxGeometry>
        </mxCell>
        <mxCell id="-MN2TbvASwCT2D1RmyAd-21" value="Student Profile Update Process" style="text;html=1;align=center;verticalAlign=middle;whiteSpace=wrap;rounded=0;" vertex="1" parent="1">
          <mxGeometry x="39" y="670" width="100" height="30" as="geometry" />
        </mxCell>
        <mxCell id="-MN2TbvASwCT2D1RmyAd-31" style="edgeStyle=orthogonalEdgeStyle;rounded=0;orthogonalLoop=1;jettySize=auto;html=1;entryX=0.5;entryY=0;entryDx=0;entryDy=0;" edge="1" parent="1" source="-MN2TbvASwCT2D1RmyAd-32" target="-MN2TbvASwCT2D1RmyAd-34">
          <mxGeometry relative="1" as="geometry">
            <mxPoint x="129" y="870" as="targetPoint" />
          </mxGeometry>
        </mxCell>
        <mxCell id="-MN2TbvASwCT2D1RmyAd-32" value="Update profile details" style="rounded=1;whiteSpace=wrap;html=1;" vertex="1" parent="1">
          <mxGeometry x="89" y="710" width="80" height="40" as="geometry" />
        </mxCell>
        <mxCell id="-MN2TbvASwCT2D1RmyAd-43" style="edgeStyle=orthogonalEdgeStyle;rounded=0;orthogonalLoop=1;jettySize=auto;html=1;entryX=0.5;entryY=0;entryDx=0;entryDy=0;" edge="1" parent="1" source="-MN2TbvASwCT2D1RmyAd-34" target="-MN2TbvASwCT2D1RmyAd-41">
          <mxGeometry relative="1" as="geometry" />
        </mxCell>
        <mxCell id="-MN2TbvASwCT2D1RmyAd-34" value="Go to Update Profile&lt;br&gt;&lt;div style=&quot;text-align: left;&quot;&gt;&lt;ul&gt;&lt;li&gt;&lt;span style=&quot;background-color: initial;&quot;&gt;First Name&lt;/span&gt;&lt;/li&gt;&lt;li&gt;&lt;span style=&quot;background-color: initial;&quot;&gt;Last Name&lt;/span&gt;&lt;/li&gt;&lt;li&gt;&lt;span style=&quot;background-color: initial;&quot;&gt;Email&lt;/span&gt;&lt;/li&gt;&lt;li&gt;&lt;span style=&quot;background-color: initial;&quot;&gt;Phone Number&lt;/span&gt;&lt;/li&gt;&lt;li style=&quot;border-color: var(--border-color); text-align: left;&quot;&gt;Address&lt;/li&gt;&lt;li style=&quot;border-color: var(--border-color); text-align: left;&quot;&gt;DOB&lt;/li&gt;&lt;li style=&quot;border-color: var(--border-color); text-align: left;&quot;&gt;Parent details&lt;/li&gt;&lt;li style=&quot;border-color: var(--border-color); text-align: left;&quot;&gt;Immergency contacts&lt;/li&gt;&lt;li style=&quot;border-color: var(--border-color); text-align: left;&quot;&gt;Nationality&lt;br style=&quot;border-color: var(--border-color);&quot;&gt;etc..&lt;/li&gt;&lt;/ul&gt;&lt;/div&gt;" style="rounded=1;whiteSpace=wrap;html=1;" vertex="1" parent="1">
          <mxGeometry x="64" y="790" width="130" height="230" as="geometry" />
        </mxCell>
        <mxCell id="-MN2TbvASwCT2D1RmyAd-36" value="Update the rest of the content" style="whiteSpace=wrap;html=1;rounded=1;" vertex="1" parent="1">
          <mxGeometry x="139" y="1230" width="120" height="60" as="geometry" />
        </mxCell>
        <mxCell id="-MN2TbvASwCT2D1RmyAd-38" style="edgeStyle=orthogonalEdgeStyle;rounded=0;orthogonalLoop=1;jettySize=auto;html=1;" edge="1" parent="1" source="-MN2TbvASwCT2D1RmyAd-39" target="-MN2TbvASwCT2D1RmyAd-36">
          <mxGeometry relative="1" as="geometry" />
        </mxCell>
        <mxCell id="-MN2TbvASwCT2D1RmyAd-50" value="" style="edgeStyle=orthogonalEdgeStyle;rounded=0;orthogonalLoop=1;jettySize=auto;html=1;" edge="1" parent="1" source="-MN2TbvASwCT2D1RmyAd-39" target="-MN2TbvASwCT2D1RmyAd-49">
          <mxGeometry relative="1" as="geometry" />
        </mxCell>
        <mxCell id="-MN2TbvASwCT2D1RmyAd-39" value="Send a verification link to email" style="rounded=1;whiteSpace=wrap;html=1;" vertex="1" parent="1">
          <mxGeometry x="139" y="1120" width="120" height="60" as="geometry" />
        </mxCell>
        <mxCell id="-MN2TbvASwCT2D1RmyAd-42" style="edgeStyle=orthogonalEdgeStyle;rounded=0;orthogonalLoop=1;jettySize=auto;html=1;entryX=1;entryY=0.5;entryDx=0;entryDy=0;" edge="1" parent="1" source="-MN2TbvASwCT2D1RmyAd-41" target="-MN2TbvASwCT2D1RmyAd-36">
          <mxGeometry relative="1" as="geometry">
            <mxPoint x="484" y="1120" as="targetPoint" />
            <Array as="points">
              <mxPoint x="399" y="1060" />
              <mxPoint x="399" y="1260" />
            </Array>
          </mxGeometry>
        </mxCell>
        <mxCell id="-MN2TbvASwCT2D1RmyAd-46" value="if&amp;nbsp; others changes but not email" style="edgeLabel;html=1;align=center;verticalAlign=middle;resizable=0;points=[];" connectable="0" vertex="1" parent="-MN2TbvASwCT2D1RmyAd-42">
          <mxGeometry x="-0.218" y="-5" relative="1" as="geometry">
            <mxPoint x="43" y="5" as="offset" />
          </mxGeometry>
        </mxCell>
        <mxCell id="-MN2TbvASwCT2D1RmyAd-44" style="edgeStyle=orthogonalEdgeStyle;rounded=0;orthogonalLoop=1;jettySize=auto;html=1;" edge="1" parent="1" source="-MN2TbvASwCT2D1RmyAd-41" target="-MN2TbvASwCT2D1RmyAd-39">
          <mxGeometry relative="1" as="geometry" />
        </mxCell>
        <mxCell id="-MN2TbvASwCT2D1RmyAd-45" value="if email changed" style="edgeLabel;html=1;align=center;verticalAlign=middle;resizable=0;points=[];" connectable="0" vertex="1" parent="-MN2TbvASwCT2D1RmyAd-44">
          <mxGeometry x="-0.0214" y="2" relative="1" as="geometry">
            <mxPoint as="offset" />
          </mxGeometry>
        </mxCell>
        <mxCell id="-MN2TbvASwCT2D1RmyAd-41" value="" style="rhombus;whiteSpace=wrap;html=1;" vertex="1" parent="1">
          <mxGeometry x="286" y="1020" width="80" height="80" as="geometry" />
        </mxCell>
        <mxCell id="-MN2TbvASwCT2D1RmyAd-49" value="Verification success" style="whiteSpace=wrap;html=1;rounded=1;" vertex="1" parent="1">
          <mxGeometry x="9" y="1230" width="120" height="60" as="geometry" />
        </mxCell>
        <mxCell id="-MN2TbvASwCT2D1RmyAd-51" value="Create Cources" style="text;html=1;align=center;verticalAlign=middle;whiteSpace=wrap;rounded=0;" vertex="1" parent="1">
          <mxGeometry x="880" y="-950" width="100" height="30" as="geometry" />
        </mxCell>
        <mxCell id="-MN2TbvASwCT2D1RmyAd-52" value="&lt;h1&gt;&lt;span style=&quot;background-color: initial;&quot;&gt;Admin Process&lt;/span&gt;&lt;br&gt;&lt;/h1&gt;" style="text;html=1;spacing=5;spacingTop=-20;whiteSpace=wrap;overflow=hidden;rounded=0;" vertex="1" parent="1">
          <mxGeometry x="1080" y="-1070" width="205" height="30" as="geometry" />
        </mxCell>
        <mxCell id="-MN2TbvASwCT2D1RmyAd-53" value="Create Accounts" style="text;html=1;align=center;verticalAlign=middle;whiteSpace=wrap;rounded=0;" vertex="1" parent="1">
          <mxGeometry x="1400" y="-950" width="100" height="30" as="geometry" />
        </mxCell>
      </root>
    </mxGraphModel>
  </diagram>
</mxfile>
